<?xml version="1.0" encoding="UTF-8"?>
<svg id="Layer_1" data-name="Layer 1" xmlns="http://www.w3.org/2000/svg" viewBox="0 0 750 750">
  <defs>
    <style>
      .cls-1, .cls-2, .cls-3, .cls-4, .cls-5, .cls-6, .cls-7, .cls-8, .cls-9 {
        font-family: ABCFavoritVariableUnlicensedTrial-Regular, 'ABC Favorit Variable Unlicensed Trial';
        font-variation-settings: 'wght' 400, 'slnt' 0;
      }

      .cls-1, .cls-2, .cls-4, .cls-5, .cls-10, .cls-7, .cls-8, .cls-9 {
        font-size: 18.39px;
      }

      .cls-1, .cls-11 {
        fill: #5bc8da;
      }

      .cls-2 {
        fill: #1e817a;
      }

      .cls-12 {
        fill: none;
        stroke: #f3f3f3;
        stroke-linecap: round;
        stroke-linejoin: round;
      }

      .cls-13 {
        fill: #e54c3c;
      }

      .cls-14 {
        fill: #82a0d3;
      }

      .cls-3 {
        font-size: 12px;
      }

      .cls-3, .cls-6 {
        fill: #6b6b6b;
      }

      .cls-15, .cls-7 {
        fill: #48c0b5;
      }

      .cls-4, .cls-16 {
        fill: #e1c543;
      }

      .cls-17 {
        fill: #1d8079;
      }

      .cls-5 {
        fill: #635ca8;
      }

      .cls-10 {
        fill: #fff;
        font-family: ABCFavoritVariable-Medium, 'ABC Favorit Variable Unlicensed Trial';
        font-variation-settings: 'wght' 500, 'slnt' 0;
        font-weight: 500;
      }

      .cls-6 {
        font-size: 28px;
      }

      .cls-8 {
        fill: #879ed1;
      }

      .cls-9 {
        fill: #e54d3c;
      }

      .cls-18 {
        fill: #655aa7;
      }
    </style>
  </defs>
  <path class="cls-15" d="M373.39,169.46c19.6,0,39.14,2.26,58.22,6.72l-14.56,62.2c-14.31-3.35-28.97-5.04-43.67-5.04v-63.88Z"/>
  <path class="cls-17" d="M431.61,176.18c33.15,7.76,64.42,22.06,91.97,42.08l-37.55,51.68c-20.66-15.01-44.11-25.74-68.98-31.56l14.56-62.2Z"/>
  <path class="cls-11" d="M523.58,218.26c27.55,20.01,50.82,45.33,68.44,74.46l-54.66,33.06c-13.22-21.85-30.67-40.84-51.33-55.85l37.55-51.68Z"/>
  <path class="cls-13" d="M592.02,292.72c46.29,76.51,49.2,171.66,7.69,250.87-41.51,79.21-121.41,130.95-210.67,136.43l-3.91-63.76c66.94-4.11,126.87-42.91,158-102.32,31.13-59.4,28.95-130.76-5.77-188.15l54.66-33.06Z"/>
  <path class="cls-16" d="M296.3,181.37c24.94-7.89,50.94-11.91,77.09-11.91v63.88c-19.62,0-39.12,3.01-57.82,8.93l-19.27-60.9Z"/>
  <path class="cls-14" d="M124.16,368.66c20.02-88.59,85.55-159.89,172.14-187.3l19.27,60.9c-64.94,20.55-114.09,74.03-129.11,140.47l-62.31-14.08Z"/>
  <path class="cls-18" d="M389.04,680.01c-80.26,4.93-158.16-28.22-210.27-89.46-52.11-61.25-72.34-143.45-54.62-221.89l62.31,14.08c-13.29,58.83,1.89,120.48,40.97,166.41,39.08,45.93,97.5,70.79,157.7,67.1l3.91,63.76Z"/>
  <text class="cls-10" transform="translate(389.05 209.95)"><tspan x="0" y="0">15</tspan></text>
  <text class="cls-10" transform="translate(454.33 228.74)"><tspan x="0" y="0">26</tspan></text>
  <text class="cls-10" transform="translate(528.94 280.57)"><tspan x="0" y="0">26</tspan></text>
  <text class="cls-10" transform="translate(558.44 529.33)"><tspan x="0" y="0">134</tspan></text>
  <text class="cls-10" transform="translate(188.78 576.74)"><tspan x="0" y="0">121</tspan></text>
  <text class="cls-10" transform="translate(192.75 280.76)"><tspan x="0" y="0">68</tspan></text>
  <text class="cls-10" transform="translate(326.78 211.09)"><tspan x="0" y="0">20</tspan></text>
  <path class="cls-12" d="M417.06,238.38c-14.31-3.35-28.97-5.04-43.67-5.04v-63.88c19.6,0,39.14,2.26,58.22,6.72"/>
  <path class="cls-12" d="M486.03,269.94c-20.66-15.01-44.11-25.74-68.98-31.56l14.56-62.2c33.15,7.76,64.42,22.06,91.97,42.08"/>
  <path class="cls-12" d="M537.36,325.79c-13.22-21.85-30.67-40.84-51.33-55.85l37.55-51.68c27.55,20.01,50.82,45.33,68.44,74.46"/>
  <path class="cls-12" d="M385.13,616.25c66.94-4.11,126.87-42.91,158-102.32,31.13-59.4,28.95-130.76-5.77-188.15l54.66-33.06c46.29,76.51,49.2,171.66,7.69,250.87-41.51,79.21-121.41,130.95-210.67,136.43"/>
  <path class="cls-12" d="M186.46,382.74c-13.29,58.83,1.89,120.48,40.97,166.41,39.08,45.93,97.5,70.79,157.7,67.1l3.91,63.76c-80.26,4.93-158.16-28.22-210.27-89.46-52.11-61.25-72.34-143.45-54.62-221.89"/>
  <path class="cls-12" d="M315.57,242.27c-64.94,20.55-114.09,74.03-129.11,140.47l-62.31-14.08c20.02-88.59,85.55-159.89,172.14-187.3"/>
  <path class="cls-12" d="M373.39,233.34c-19.62,0-39.12,3.01-57.82,8.93l-19.27-60.9c24.94-7.89,50.94-11.91,77.09-11.91"/>
  <text class="cls-2" transform="translate(489.43 184.71)"><tspan x="0" y="0">Foodstuffs 6.3%</tspan></text>
  <text class="cls-7" transform="translate(389.05 154.99)"><tspan x="0" y="0">Arts 3.7%</tspan></text>
  <text class="cls-4" transform="translate(264.73 154.99)"><tspan x="0" y="0">Social 4.9%</tspan></text>
  <text class="cls-6" transform="translate(61.28 65.4)"><tspan x="0" y="0">Kensington Market non-residential activity, 2025</tspan></text>
  <text class="cls-3" transform="translate(15.71 730.1)"><tspan x="0" y="0">Source: KMCLT, Data Axle Canadian Historical Business Data 2025</tspan></text>
  <text class="cls-9" transform="translate(608.73 568.27)"><tspan x="0" y="0">Restaurants </tspan><tspan x="0" y="22.07">and bars 32.7%</tspan></text>
  <text class="cls-1" transform="translate(579.67 247.55)"><tspan x="0" y="0">Medical 6.3%</tspan></text>
  <text class="cls-5" transform="translate(31.56 591.17)"><tspan x="0" y="0">Retail 29.5%</tspan></text>
  <text class="cls-8" transform="translate(31.56 252.1)"><tspan x="0" y="0">Services 16.6%</tspan></text>
</svg>