<?xml version="1.0" encoding="UTF-8"?>
<svg xmlns="http://www.w3.org/2000/svg" viewBox="0 0 900 750">
  <defs>
    <style>
      .cls-1, .cls-2, .cls-3, .cls-4, .cls-5, .cls-6, .cls-7, .cls-8, .cls-9, .cls-10, .cls-11, .cls-12 {
        stroke: #fff;
        stroke-miterlimit: 10;
        stroke-width: .75px;
      }

      .cls-1, .cls-13 {
        fill: #f9bc15;
      }

      .cls-2, .cls-14 {
        fill: #48c0b5;
      }

      .cls-15, .cls-16, .cls-17, .cls-18, .cls-19, .cls-20, .cls-13, .cls-21, .cls-22, .cls-23, .cls-14, .cls-24, .cls-25 {
        font-size: 18.39px;
      }

      .cls-15, .cls-16, .cls-26, .cls-18, .cls-19, .cls-20, .cls-13, .cls-27, .cls-21, .cls-22, .cls-23, .cls-14, .cls-24 {
        font-family: ABCFavoritVariableUnlicensedTrial-Regular, 'ABC Favorit Variable Unlicensed Trial';
        font-variation-settings: 'wght' 400, 'slnt' 0;
      }

      .cls-15, .cls-6 {
        fill: #c25da3;
      }

      .cls-16, .cls-11 {
        fill: #1e817a;
      }

      .cls-3, .cls-22 {
        fill: #1f2020;
      }

      .cls-17 {
        fill: #7a7a7a;
      }

      .cls-17, .cls-28, .cls-25 {
        font-family: ABCFavoritVariable-Book, 'ABC Favorit Variable Unlicensed Trial';
        font-variation-settings: 'wght' 350, 'slnt' 0;
      }

      .cls-4, .cls-24 {
        fill: #82a0d3;
      }

      .cls-5 {
        fill: #cccccb;
      }

      .cls-28 {
        font-size: 13px;
      }

      .cls-28, .cls-29, .cls-25 {
        fill: #fff;
      }

      .cls-26 {
        font-size: 12px;
      }

      .cls-26, .cls-27 {
        fill: #6b6b6b;
      }

      .cls-18, .cls-10 {
        fill: #e1c543;
      }

      .cls-19, .cls-7 {
        fill: #655aa7;
      }

      .cls-20 {
        fill: #878787;
      }

      .cls-27 {
        font-size: 28px;
      }

      .cls-21, .cls-9 {
        fill: #f3893a;
      }

      .cls-23, .cls-8 {
        fill: #b79c87;
      }

      .cls-12 {
        fill: #f9f2eb;
      }
    </style>
  </defs>
  <g id="Layer_1" data-name="Layer 1">
    <path class="cls-10" d="M418.79,151.42c35.43,0,70.49,7.32,102.96,21.51l-102.96,235.59V151.42Z"/>
    <path class="cls-8" d="M521.74,172.93c16.19,7.08,31.61,15.8,46.01,26.04l-148.97,209.54,102.96-235.59Z"/>
    <path class="cls-1" d="M567.75,198.98c54.64,38.84,91.95,97.5,103.97,163.45l-252.93,46.09,148.97-209.54Z"/>
    <path class="cls-11" d="M671.72,362.43c1.58,8.69,2.72,17.45,3.4,26.25l-256.33,19.84,252.93-46.09Z"/>
    <path class="cls-3" d="M675.12,388.68c.34,4.4.57,8.81.68,13.22l-257.01,6.62,256.33-19.84Z"/>
    <path class="cls-9" d="M675.8,401.9c.11,4.41.11,8.83,0,13.24l-257.01-6.62,257.01-6.62Z"/>
    <path class="cls-4" d="M675.8,415.14c-.45,17.66-2.73,35.24-6.79,52.43l-250.23-59.05,257.01,6.62Z"/>
    <path class="cls-12" d="M669.01,467.57c-2.03,8.59-4.5,17.08-7.4,25.42l-242.83-84.47,250.23,59.05Z"/>
    <path class="cls-2" d="M405.55,151.76c4.41-.23,8.82-.34,13.24-.34v257.1l-13.24-256.76Z"/>
    <path class="cls-7" d="M171.93,336.66c30.59-105.07,124.33-179.27,233.62-184.9l13.24,256.76-246.85-71.86Z"/>
    <path class="cls-5" d="M162.45,388.68c1.36-17.62,4.54-35.05,9.48-52.01l246.85,71.86-256.33-19.84Z"/>
    <path class="cls-6" d="M661.61,492.99c-42.46,122.06-168.92,193.63-295.42,167.2-126.5-26.43-213.72-142.66-203.74-271.51l256.33,19.84,242.83,84.47Z"/>
    <text class="cls-25" transform="translate(460.41 195.49)"><tspan x="0" y="0">8</tspan></text>
    <text class="cls-25" transform="translate(408.94 185.49)"><tspan x="0" y="0">1</tspan></text>
    <text class="cls-25" transform="translate(598.31 290.73)"><tspan x="0" y="0">15</tspan></text>
    <text class="cls-25" transform="translate(643.57 444.39)"><tspan x="0" y="0">4</tspan></text>
    <text class="cls-25" transform="translate(342.27 630.13)"><tspan x="0" y="0">56</tspan></text>
    <text class="cls-25" transform="translate(191.01 372.59)"><tspan x="0" y="0">4</tspan></text>
    <text class="cls-25" transform="translate(526.11 216.53)"><tspan x="0" y="0">4</tspan></text>
    <text class="cls-25" transform="translate(640.2 385.47)"><tspan x="0" y="0">2</tspan></text>
    <text class="cls-17" transform="translate(636.7 478.19)"><tspan x="0" y="0">2</tspan></text>
    <text class="cls-28" transform="translate(647.21 400.56)"><tspan x="0" y="0">1</tspan></text>
    <text class="cls-28" transform="translate(646.79 412.72)"><tspan x="0" y="0">1</tspan></text>
    <text class="cls-25" transform="translate(268.81 242.88)"><tspan x="0" y="0">24</tspan></text>
    <text class="cls-14" transform="translate(350.21 130.3)"><tspan x="0" y="0">Car rental 0.8%</tspan></text>
    <text class="cls-19" transform="translate(55.74 198.98)"><tspan x="0" y="0">Vintage clothing 19.7%</tspan></text>
    <text class="cls-20" transform="translate(64.96 365.13)"><tspan x="0" y="0">Vape 3.3%</tspan></text>
    <text class="cls-15" transform="translate(146.12 674.05)"><tspan x="0" y="0">Specialty store 45.9%</tspan></text>
    <text class="cls-18" transform="translate(459.53 151.42)"><tspan x="0" y="0">Cannabis 6.6%</tspan></text>
    <text class="cls-23" transform="translate(555.96 182.43)"><tspan x="0" y="0">Convenience store 3.3%</tspan></text>
    <text class="cls-13" transform="translate(642.75 269.94)"><tspan x="0" y="0">Discount store 12.3%</tspan></text>
    <text class="cls-16" transform="translate(687.8 380.17)"><tspan x="0" y="0">Flea-market style 1.6%</tspan></text>
    <text class="cls-22" transform="translate(688.49 403.8)"><tspan x="0" y="0">Hardware 0.8%</tspan></text>
    <text class="cls-21" transform="translate(688.14 424.26)"><tspan x="0" y="0">Mushrooms 0.8%</tspan></text>
    <text class="cls-24" transform="translate(683.32 449.1)"><tspan x="0" y="0">New clothing 3.3%</tspan></text>
    <text class="cls-20" transform="translate(674.99 489.51)"><tspan x="0" y="0">Other 1.6%</tspan></text>
    <text class="cls-27" transform="translate(169.14 65.4)"><tspan x="0" y="0">Kensington Market retail activity, 2025</tspan></text>
    <text class="cls-26" transform="translate(15.71 730.1)"><tspan x="0" y="0">Source: KMCLT, Data Axle Canadian Historical Business Data 2025</tspan></text>
  </g>
  <g id="Donut_mask" data-name="Donut mask">
    <circle class="cls-29" cx="418.79" cy="409.64" r="193.62"/>
  </g>
</svg>