<?xml version="1.0" encoding="UTF-8"?>
<svg xmlns="http://www.w3.org/2000/svg" viewBox="0 0 750 750">
  <defs>
    <style>
      .cls-1, .cls-2, .cls-3 {
        stroke: #fff;
        stroke-miterlimit: 10;
        stroke-width: .75px;
      }

      .cls-1, .cls-4 {
        fill: #e54d3c;
      }

      .cls-2, .cls-5 {
        fill: #82a0d3;
      }

      .cls-6 {
        font-size: 12px;
      }

      .cls-6, .cls-7, .cls-8, .cls-5, .cls-4, .cls-9 {
        font-family: ABCFavoritVariableUnlicensedTrial-Regular, 'ABC Favorit Variable Unlicensed Trial';
        font-variation-settings: 'wght' 400, 'slnt' 0;
      }

      .cls-6, .cls-8 {
        fill: #6b6b6b;
      }

      .cls-7, .cls-5, .cls-4, .cls-9 {
        font-size: 18.39px;
      }

      .cls-7, .cls-3 {
        fill: #e1c543;
      }

      .cls-8 {
        font-size: 28px;
      }

      .cls-10, .cls-9 {
        fill: #fff;
      }
    </style>
  </defs>
  <g id="Layer_1" data-name="Layer 1">
    <path class="cls-3" d="M394.98,156.16c68.55,0,134.2,27.65,182.1,76.68l-182.1,177.88v-254.56Z"/>
    <path class="cls-2" d="M182.91,269.91c47.17-71.05,126.79-113.75,212.07-113.75v254.56l-212.07-140.8Z"/>
    <path class="cls-1" d="M577.08,232.84c93.39,95.6,96.94,247.15,8.14,347.03-88.8,99.88-239.73,114.07-345.6,32.5-105.87-81.57-130.64-231.12-56.71-342.46l212.07,140.8,182.1-177.88Z"/>
    <text class="cls-5" transform="translate(134.52 183.25)"><tspan x="0" y="0">Take-out 15.7%</tspan></text>
    <text class="cls-7" transform="translate(503.57 174.06)"><tspan x="0" y="0">Bar 12.7%</tspan></text>
    <text class="cls-9" transform="translate(479.88 215.19)"><tspan x="0" y="0">17</tspan></text>
    <text class="cls-9" transform="translate(277.4 222.64)"><tspan x="0" y="0">21</tspan></text>
    <text class="cls-9" transform="translate(383.81 641.41)"><tspan x="0" y="0">96</tspan></text>
    <text class="cls-4" transform="translate(306.2 683.84)"><tspan x="0" y="0">Eat-in restaurant 71.6%</tspan></text>
    <text class="cls-8" transform="translate(91.21 65.4)"><tspan x="0" y="0">Kensington Market restaurant activity, 2025</tspan></text>
    <text class="cls-6" transform="translate(15.71 730.1)"><tspan x="0" y="0">Source: KMCLT, Data Axle Canadian Historical Business Data 2025</tspan></text>
  </g>
  <g id="Donut_mask" data-name="Donut mask">
    <circle class="cls-10" cx="394.98" cy="410.36" r="191.91"/>
  </g>
</svg>