<?xml version="1.0" encoding="UTF-8"?>
<svg xmlns="http://www.w3.org/2000/svg" viewBox="0 0 590.79 543.65">
  <defs>
    <style>
      .cls-1, .cls-2 {
        fill: #ee3338;
      }

      .cls-3 {
        font-size: 16px;
      }

      .cls-3, .cls-4, .cls-5, .cls-6, .cls-7, .cls-8, .cls-9, .cls-10, .cls-11, .cls-12, .cls-13, .cls-14, .cls-15, .cls-16, .cls-2, .cls-17, .cls-18 {
        font-family: ABCFavoritVariableUnlicensedTrial-Regular, 'ABC Favorit Variable Unlicensed Trial';
        font-variation-settings: 'wght' 400, 'slnt' 0;
      }

      .cls-3, .cls-8, .cls-13, .cls-14, .cls-18 {
        fill: #414042;
      }

      .cls-19, .cls-15 {
        fill: #038775;
      }

      .cls-20 {
        fill: #d2edf4;
      }

      .cls-4, .cls-5, .cls-7, .cls-9, .cls-11, .cls-12, .cls-15, .cls-2, .cls-17 {
        font-size: 9.24px;
      }

      .cls-4, .cls-21 {
        fill: #00a697;
      }

      .cls-22 {
        stroke: #6d6e71;
        stroke-dasharray: 2;
        stroke-width: .5px;
      }

      .cls-22, .cls-23 {
        fill: none;
        stroke-miterlimit: 10;
      }

      .cls-24, .cls-12 {
        fill: #879ed1;
      }

      .cls-25 {
        fill: #f7f2cd;
      }

      .cls-5, .cls-26 {
        fill: #e3c421;
      }

      .cls-27 {
        fill: #f3f4f3;
      }

      .cls-6 {
        fill: #808285;
        font-size: 7.13px;
      }

      .cls-28 {
        fill: #e0e6f3;
      }

      .cls-29, .cls-9 {
        fill: #cfcfcd;
      }

      .cls-7, .cls-30 {
        fill: #635ba8;
      }

      .cls-8 {
        font-size: 14.81px;
      }

      .cls-31 {
        fill: #d9d0e7;
      }

      .cls-10, .cls-32 {
        font-size: 8.47px;
      }

      .cls-11, .cls-33 {
        fill: #00b8a7;
      }

      .cls-34 {
        letter-spacing: 0em;
      }

      .cls-35 {
        letter-spacing: 0em;
      }

      .cls-36 {
        letter-spacing: 0em;
      }

      .cls-37 {
        letter-spacing: 0em;
      }

      .cls-23 {
        stroke: #bcbec0;
        stroke-width: .25px;
      }

      .cls-38 {
        fill: #c7e8ea;
      }

      .cls-39 {
        letter-spacing: 0em;
      }

      .cls-40 {
        letter-spacing: 0em;
      }

      .cls-41 {
        fill: #fbcfcc;
      }

      .cls-42 {
        letter-spacing: 0em;
      }

      .cls-43 {
        letter-spacing: 0em;
      }

      .cls-13 {
        font-size: 12px;
      }

      .cls-14 {
        font-size: 10px;
      }

      .cls-16 {
        font-size: 8.32px;
      }

      .cls-44 {
        letter-spacing: -.1em;
      }

      .cls-45 {
        letter-spacing: -.09em;
      }

      .cls-46 {
        letter-spacing: -.09em;
      }

      .cls-47 {
        letter-spacing: -.09em;
      }

      .cls-48 {
        letter-spacing: -.09em;
      }

      .cls-49 {
        letter-spacing: -.09em;
      }

      .cls-50 {
        letter-spacing: -.09em;
      }

      .cls-51 {
        letter-spacing: -.12em;
      }

      .cls-52 {
        letter-spacing: -.12em;
      }

      .cls-53 {
        letter-spacing: -.11em;
      }

      .cls-54 {
        letter-spacing: -.02em;
      }

      .cls-55 {
        letter-spacing: -.02em;
      }

      .cls-56 {
        letter-spacing: -.02em;
      }

      .cls-57 {
        letter-spacing: -.02em;
      }

      .cls-58 {
        letter-spacing: -.02em;
      }

      .cls-59 {
        letter-spacing: -.02em;
      }

      .cls-60 {
        letter-spacing: -.02em;
      }

      .cls-61 {
        letter-spacing: -.02em;
      }

      .cls-62 {
        letter-spacing: -.02em;
      }

      .cls-63 {
        letter-spacing: -.03em;
      }

      .cls-64 {
        letter-spacing: -.03em;
      }

      .cls-65 {
        letter-spacing: -.03em;
      }

      .cls-66 {
        letter-spacing: -.03em;
      }

      .cls-67 {
        letter-spacing: -.03em;
      }

      .cls-68 {
        letter-spacing: -.03em;
      }

      .cls-69 {
        letter-spacing: -.03em;
      }

      .cls-70 {
        letter-spacing: -.03em;
      }

      .cls-71 {
        letter-spacing: -.02em;
      }

      .cls-72 {
        letter-spacing: -.02em;
      }

      .cls-73 {
        letter-spacing: -.02em;
      }

      .cls-74 {
        letter-spacing: -.02em;
      }

      .cls-75 {
        letter-spacing: -.02em;
      }

      .cls-76 {
        letter-spacing: -.02em;
      }

      .cls-77 {
        letter-spacing: -.02em;
      }

      .cls-78 {
        letter-spacing: -.02em;
      }

      .cls-79 {
        letter-spacing: -.01em;
      }

      .cls-80 {
        letter-spacing: -.02em;
      }

      .cls-81 {
        letter-spacing: -.01em;
      }

      .cls-82 {
        letter-spacing: -.02em;
      }

      .cls-83 {
        letter-spacing: -.02em;
      }

      .cls-84 {
        letter-spacing: -.02em;
      }

      .cls-85 {
        letter-spacing: -.02em;
      }

      .cls-86 {
        letter-spacing: -.02em;
      }

      .cls-87 {
        letter-spacing: -.02em;
      }

      .cls-88 {
        letter-spacing: -.01em;
      }

      .cls-89 {
        letter-spacing: -.02em;
      }

      .cls-90 {
        letter-spacing: -.02em;
      }

      .cls-91 {
        letter-spacing: -.02em;
      }

      .cls-92 {
        letter-spacing: -.02em;
      }

      .cls-93 {
        letter-spacing: -.02em;
      }

      .cls-94 {
        letter-spacing: -.02em;
      }

      .cls-95 {
        letter-spacing: -.02em;
      }

      .cls-96 {
        letter-spacing: -.02em;
      }

      .cls-97 {
        letter-spacing: -.02em;
      }

      .cls-98 {
        letter-spacing: -.02em;
      }

      .cls-99 {
        letter-spacing: -.02em;
      }

      .cls-100 {
        letter-spacing: -.02em;
      }

      .cls-101 {
        letter-spacing: -.02em;
      }

      .cls-102 {
        letter-spacing: -.02em;
      }

      .cls-103 {
        letter-spacing: -.02em;
      }

      .cls-104 {
        letter-spacing: -.02em;
      }

      .cls-105 {
        letter-spacing: -.01em;
      }

      .cls-17, .cls-106 {
        fill: #3bc1cf;
      }

      .cls-107 {
        letter-spacing: -.02em;
      }

      .cls-108 {
        letter-spacing: -.05em;
      }

      .cls-109 {
        letter-spacing: -.05em;
      }

      .cls-110 {
        letter-spacing: -.03em;
      }

      .cls-111 {
        letter-spacing: -.03em;
      }

      .cls-112 {
        letter-spacing: -.03em;
      }

      .cls-113 {
        letter-spacing: -.03em;
      }

      .cls-114 {
        letter-spacing: -.03em;
      }

      .cls-115 {
        fill: #c4e5e6;
      }

      .cls-116 {
        letter-spacing: -.03em;
      }

      .cls-117 {
        letter-spacing: -.03em;
      }

      .cls-118 {
        letter-spacing: -.03em;
      }

      .cls-119 {
        letter-spacing: -.03em;
      }

      .cls-120 {
        letter-spacing: -.03em;
      }

      .cls-121 {
        letter-spacing: 0em;
      }

      .cls-122 {
        letter-spacing: 0em;
      }

      .cls-123 {
        letter-spacing: 0em;
      }

      .cls-124 {
        letter-spacing: 0em;
      }

      .cls-125 {
        letter-spacing: 0em;
      }

      .cls-126 {
        letter-spacing: 0em;
      }

      .cls-127 {
        letter-spacing: 0em;
      }

      .cls-128 {
        letter-spacing: 0em;
      }

      .cls-129 {
        letter-spacing: 0em;
      }

      .cls-130 {
        letter-spacing: 0em;
      }

      .cls-131 {
        letter-spacing: 0em;
      }

      .cls-132 {
        letter-spacing: 0em;
      }

      .cls-133 {
        letter-spacing: 0em;
      }

      .cls-134 {
        letter-spacing: 0em;
      }

      .cls-135 {
        letter-spacing: 0em;
      }

      .cls-136 {
        letter-spacing: 0em;
      }

      .cls-137 {
        letter-spacing: 0em;
      }

      .cls-138 {
        letter-spacing: 0em;
      }

      .cls-139 {
        letter-spacing: 0em;
      }

      .cls-140 {
        letter-spacing: 0em;
      }

      .cls-141 {
        letter-spacing: 0em;
      }

      .cls-142 {
        letter-spacing: 0em;
      }

      .cls-143 {
        letter-spacing: 0em;
      }

      .cls-144 {
        letter-spacing: 0em;
      }

      .cls-145 {
        letter-spacing: 0em;
      }

      .cls-146 {
        letter-spacing: 0em;
      }

      .cls-147 {
        letter-spacing: 0em;
      }

      .cls-148 {
        letter-spacing: -.01em;
      }

      .cls-149 {
        letter-spacing: -.01em;
      }

      .cls-150 {
        letter-spacing: -.01em;
      }

      .cls-151 {
        letter-spacing: -.01em;
      }

      .cls-152 {
        letter-spacing: -.01em;
      }

      .cls-153 {
        letter-spacing: -.01em;
      }

      .cls-154 {
        letter-spacing: -.01em;
      }

      .cls-155 {
        letter-spacing: -.01em;
      }

      .cls-156 {
        letter-spacing: -.01em;
      }

      .cls-157 {
        letter-spacing: -.01em;
      }

      .cls-158 {
        letter-spacing: 0em;
      }

      .cls-159 {
        fill: #c0e1dc;
      }

      .cls-160 {
        letter-spacing: -.01em;
      }

      .cls-161 {
        letter-spacing: -.01em;
      }

      .cls-162 {
        letter-spacing: -.01em;
      }

      .cls-163 {
        letter-spacing: 0em;
      }

      .cls-164 {
        letter-spacing: 0em;
      }

      .cls-165 {
        letter-spacing: 0em;
      }

      .cls-166 {
        letter-spacing: 0em;
      }

      .cls-167 {
        letter-spacing: 0em;
      }

      .cls-168 {
        letter-spacing: 0em;
      }

      .cls-169 {
        letter-spacing: 0em;
      }

      .cls-170 {
        letter-spacing: 0em;
      }

      .cls-171 {
        letter-spacing: 0em;
      }

      .cls-172 {
        letter-spacing: 0em;
      }

      .cls-173 {
        letter-spacing: 0em;
      }

      .cls-174 {
        letter-spacing: 0em;
      }

      .cls-175 {
        letter-spacing: 0em;
      }

      .cls-176 {
        letter-spacing: 0em;
      }

      .cls-177 {
        letter-spacing: 0em;
      }

      .cls-178 {
        letter-spacing: 0em;
      }

      .cls-179 {
        letter-spacing: 0em;
      }

      .cls-180 {
        letter-spacing: 0em;
      }

      .cls-181 {
        letter-spacing: 0em;
      }

      .cls-182 {
        letter-spacing: 0em;
      }

      .cls-183 {
        letter-spacing: 0em;
      }

      .cls-184 {
        letter-spacing: 0em;
      }

      .cls-185 {
        letter-spacing: 0em;
      }

      .cls-32 {
        font-family: AndaleMono, 'Andale Mono';
      }

      .cls-18 {
        font-size: 19.75px;
      }

      .cls-186 {
        letter-spacing: 0em;
      }
    </style>
  </defs>
  <g id="swatch">
    <rect class="cls-31" x="332.55" y="151.69" width="161.61" height="85.77"/>
    <rect class="cls-41" x="332.55" y="237.46" width="161.61" height="87.36"/>
    <rect class="cls-25" x="332.55" y="458.01" width="161.61" height="17.01"/>
    <rect class="cls-20" x="76.55" y="89.69" width="161.61" height="148.35"/>
    <rect class="cls-20" x="332.55" y="89.69" width="161.61" height="62"/>
    <rect class="cls-159" x="76.55" y="237.81" width="161.61" height="124.06"/>
    <rect class="cls-115" x="76.55" y="361.87" width="161.61" height="85.9"/>
    <rect class="cls-38" x="76.55" y="447.77" width="161.61" height="26.26"/>
    <rect class="cls-28" x="76.55" y="473.94" width="161.61" height="12.74"/>
    <rect class="cls-159" x="332.55" y="324.82" width="161.61" height="24.5"/>
    <rect class="cls-115" x="332.55" y="349.32" width="161.61" height="49.63"/>
    <rect class="cls-38" x="332.55" y="471.68" width="161.61" height="13.13"/>
    <rect class="cls-28" x="332.55" y="435.33" width="161.61" height="23.88"/>
    <rect class="cls-27" x="332.55" y="398.49" width="161.61" height="36.8"/>
  </g>
  <g id="unchanged_lines" data-name="unchanged lines">
    <line class="cls-23" x1="234.38" y1="95.88" x2="336.9" y2="95.62"/>
    <line class="cls-23" x1="124.95" y1="512.75" x2="159.35" y2="512.75"/>
    <line class="cls-22" x1="125.27" y1="501.07" x2="159.68" y2="501.07"/>
    <line class="cls-23" x1="234.38" y1="108.25" x2="336.9" y2="107.99"/>
    <line class="cls-23" x1="234.38" y1="120.62" x2="336.9" y2="120.37"/>
    <line class="cls-23" x1="234.38" y1="133" x2="336.9" y2="132.74"/>
    <line class="cls-23" x1="234.38" y1="145.37" x2="336.9" y2="145.12"/>
    <line class="cls-22" x1="234.72" y1="319.82" x2="336.68" y2="269.58"/>
    <line class="cls-22" x1="234.72" y1="332.2" x2="336.68" y2="318.95"/>
    <line class="cls-23" x1="234.38" y1="344.26" x2="336.75" y2="331.46"/>
    <line class="cls-23" x1="234.72" y1="356.88" x2="336.75" y2="343.84"/>
    <line class="cls-23" x1="234.72" y1="369.26" x2="336.75" y2="356.21"/>
    <line class="cls-23" x1="234.72" y1="381.63" x2="336.75" y2="368.58"/>
    <line class="cls-23" x1="234.72" y1="393.63" x2="336.75" y2="380.58"/>
    <line class="cls-23" x1="234.72" y1="405.63" x2="336.75" y2="392.58"/>
  </g>
  <g id="changed_lines" data-name="changed lines">
    <line class="cls-22" x1="234.38" y1="430.51" x2="336.68" y2="306.58"/>
    <line class="cls-22" x1="234.38" y1="442.88" x2="336.9" y2="442.88"/>
    <line class="cls-22" x1="234.38" y1="455.26" x2="336.9" y2="455.26"/>
    <line class="cls-22" x1="234.38" y1="467.63" x2="336.9" y2="467.63"/>
    <line class="cls-22" x1="234.38" y1="219.58" x2="336.57" y2="418.02"/>
    <line class="cls-22" x1="234.38" y1="232.58" x2="336.57" y2="430.02"/>
    <line class="cls-22" x1="234.38" y1="207.44" x2="336.9" y2="406.62"/>
    <line class="cls-22" x1="234.44" y1="418.68" x2="337.03" y2="293.64"/>
    <line class="cls-22" x1="234.38" y1="158.07" x2="336.9" y2="158.07"/>
    <line class="cls-22" x1="234.38" y1="170.44" x2="336.9" y2="170.44"/>
    <line class="cls-22" x1="234.38" y1="182.82" x2="336.9" y2="182.82"/>
    <line class="cls-22" x1="234.38" y1="244.71" x2="336.9" y2="195.3"/>
    <line class="cls-22" x1="234.38" y1="257.09" x2="336.9" y2="207.67"/>
    <line class="cls-22" x1="234.38" y1="269.46" x2="336.9" y2="220.05"/>
    <line class="cls-22" x1="234.38" y1="194.96" x2="336.57" y2="281.59"/>
    <line class="cls-22" x1="234.38" y1="281.94" x2="336.9" y2="232.52"/>
    <line class="cls-22" x1="234.38" y1="294.32" x2="336.9" y2="244.9"/>
    <line class="cls-22" x1="234.38" y1="306.69" x2="336.9" y2="257.27"/>
    <text class="cls-14" transform="translate(469.21 84.79)"><tspan x="0" y="0">2025</tspan></text>
    <text class="cls-14" transform="translate(76.55 84.79)"><tspan x="0" y="0">2007</tspan></text>
    <text class="cls-3" transform="translate(121.49 30.91)"><tspan class="cls-48" x="0" y="0">T</tspan><tspan class="cls-160" x="8.69" y="0">r</tspan><tspan class="cls-40" x="14.54" y="0">an</tspan><tspan class="cls-178" x="32.3" y="0">s</tspan><tspan class="cls-80" x="40" y="0">f</tspan><tspan x="45.79" y="0">orm</tspan><tspan class="cls-137" x="75.29" y="0">a</tspan><tspan x="83.68" y="0">tion </tspan><tspan class="cls-149" x="116.03" y="0">o</tspan><tspan class="cls-71" x="124.94" y="0">f</tspan><tspan x="130.69" y="0" xml:space="preserve"> g</tspan><tspan class="cls-101" x="144" y="0">r</tspan><tspan x="149.76" y="0">oce</tspan><tspan class="cls-129" x="175.96" y="0">r</tspan><tspan x="181.87" y="0">s in </tspan><tspan class="cls-113" x="210.68" y="0">K</tspan><tspan x="220.99" y="0">ensing</tspan><tspan class="cls-128" x="269.29" y="0">t</tspan><tspan x="275.35" y="0">on Mar</tspan><tspan class="cls-66" x="326.92" y="0">k</tspan><tspan class="cls-184" x="335.02" y="0">e</tspan><tspan x="343.5" y="0">t</tspan></text>
    <text class="cls-13" transform="translate(154.31 54.56)"><tspan x="0" y="0">Business</tspan><tspan class="cls-91" x="48.72" y="0"> </tspan><tspan x="51.44" y="0">turn</tspan><tspan class="cls-155" x="74.37" y="0">ov</tspan><tspan x="87.11" y="0">e</tspan><tspan class="cls-76" x="93.56" y="0">r</tspan><tspan x="97.8" y="0"> </tspan><tspan class="cls-149" x="100.73" y="0">o</tspan><tspan class="cls-84" x="107.41" y="0">f</tspan><tspan x="111.72" y="0" xml:space="preserve"> g</tspan><tspan class="cls-104" x="121.7" y="0">r</tspan><tspan x="126.02" y="0">oce</tspan><tspan class="cls-171" x="145.68" y="0">r</tspan><tspan x="150.11" y="0">s b</tspan><tspan class="cls-172" x="166.04" y="0">e</tspan><tspan x="172.4" y="0">t</tspan><tspan class="cls-165" x="177.02" y="0">w</tspan><tspan x="186.27" y="0">een 2007</tspan><tspan class="cls-91" x="238.32" y="0"> </tspan><tspan class="cls-125" x="241.04" y="0">t</tspan><tspan x="245.59" y="0">o 2025</tspan></text>
    <text class="cls-6" transform="translate(77.11 514.79)"><tspan class="cls-183" x="0" y="0">U</tspan><tspan x="4.93" y="0">nchanged:</tspan></text>
    <text class="cls-6" transform="translate(77.72 502.97)"><tspan x="0" y="0">Changed:</tspan></text>
    <text class="cls-6" transform="translate(77.08 525.86)"><tspan x="0" y="0">D</tspan><tspan class="cls-132" x="5.1" y="0">a</tspan><tspan class="cls-35" x="8.84" y="0">ta sou</tspan><tspan class="cls-99" x="28.71" y="0">r</tspan><tspan x="31.28" y="0">ce: </tspan><tspan class="cls-119" x="42.45" y="0">K</tspan><tspan x="47.04" y="0">ensing</tspan><tspan class="cls-123" x="68.58" y="0">t</tspan><tspan x="71.29" y="0">on Mar</tspan><tspan class="cls-67" x="94.28" y="0">k</tspan><tspan class="cls-179" x="97.89" y="0">e</tspan><tspan class="cls-35" x="101.67" y="0">t Communit</tspan><tspan class="cls-90" x="140.76" y="0">y</tspan><tspan x="144.47" y="0" xml:space="preserve"> Land</tspan><tspan class="cls-117" x="162.78" y="0"> </tspan><tspan class="cls-46" x="164.32" y="0">T</tspan><tspan x="168.19" y="0">ru</tspan><tspan class="cls-139" x="174.94" y="0">s</tspan><tspan class="cls-35" x="178.38" y="0">t 2025, Google St</tspan><tspan class="cls-99" x="235.59" y="0">r</tspan><tspan x="238.16" y="0">e</tspan><tspan class="cls-179" x="242" y="0">e</tspan><tspan x="245.78" y="0">t</tspan><tspan class="cls-59" x="248.53" y="0"> </tspan><tspan x="250.1" y="0">Vi</tspan><tspan class="cls-179" x="256.83" y="0">e</tspan><tspan x="260.61" y="0">w 2025</tspan></text>
    <line class="cls-22" x1="234.38" y1="479.63" x2="336.9" y2="479.63"/>
    <text class="cls-18" transform="translate(-540.78 36.26)"><tspan class="cls-47" x="0" y="0">T</tspan><tspan class="cls-168" x="10.73" y="0">r</tspan><tspan x="17.96" y="0">an</tspan><tspan class="cls-176" x="39.88" y="0">s</tspan><tspan class="cls-88" x="49.38" y="0">f</tspan><tspan x="56.53" y="0">orm</tspan><tspan class="cls-130" x="92.95" y="0">a</tspan><tspan x="103.3" y="0">tion </tspan><tspan class="cls-152" x="143.24" y="0">o</tspan><tspan class="cls-86" x="154.24" y="0">f</tspan><tspan x="161.33" y="0" xml:space="preserve"> g</tspan><tspan class="cls-98" x="177.76" y="0">r</tspan><tspan x="184.87" y="0">oce</tspan><tspan class="cls-180" x="217.22" y="0">r</tspan><tspan x="224.51" y="0">s in </tspan><tspan class="cls-114" x="260.08" y="0">K</tspan><tspan x="272.8" y="0">ensing</tspan><tspan class="cls-122" x="332.43" y="0">t</tspan><tspan x="339.92" y="0">on Mar</tspan><tspan class="cls-64" x="403.57" y="0">k</tspan><tspan class="cls-177" x="413.57" y="0">e</tspan><tspan x="424.04" y="0">t</tspan></text>
    <text class="cls-8" transform="translate(-500.27 65.46)"><tspan x="0" y="0">Business</tspan><tspan class="cls-92" x="60.14" y="0"> </tspan><tspan x="63.5" y="0">turn</tspan><tspan class="cls-153" x="91.81" y="0">ov</tspan><tspan x="107.53" y="0">e</tspan><tspan class="cls-75" x="115.5" y="0">r</tspan><tspan x="120.73" y="0"> </tspan><tspan class="cls-151" x="124.34" y="0">o</tspan><tspan class="cls-72" x="132.59" y="0">f</tspan><tspan x="137.91" y="0" xml:space="preserve"> g</tspan><tspan class="cls-97" x="150.23" y="0">r</tspan><tspan x="155.57" y="0">oce</tspan><tspan class="cls-181" x="179.83" y="0">r</tspan><tspan x="185.3" y="0">s b</tspan><tspan class="cls-174" x="204.97" y="0">e</tspan><tspan x="212.82" y="0">t</tspan><tspan class="cls-163" x="218.52" y="0">w</tspan><tspan x="229.95" y="0">een 2007</tspan><tspan class="cls-92" x="294.19" y="0"> </tspan><tspan class="cls-127" x="297.55" y="0">t</tspan><tspan x="303.17" y="0">o 2025</tspan></text>
  </g>
  <g id="Layer_2" data-name="Layer 2">
    <text class="cls-16" transform="translate(172.98 98.17)"><tspan class="cls-106"><tspan x="0" y="0">Cheese Magic</tspan></tspan><tspan class="cls-106"><tspan x="-29.62" y="12.37">Co</tspan><tspan class="cls-167" x="-19.04" y="12.37">r</tspan><tspan class="cls-43" x="-16" y="12.37">al Sea Fish Mar</tspan><tspan class="cls-65" x="41.83" y="12.37">k</tspan><tspan class="cls-170" x="46.04" y="12.37">e</tspan><tspan x="50.45" y="12.37">t</tspan></tspan><tspan class="cls-106"><tspan class="cls-169" x="-92.22" y="24.75">E</tspan><tspan x="-86.85" y="24.75">u</tspan><tspan class="cls-103" x="-82.11" y="24.75">r</tspan><tspan x="-79.11" y="24.75">opean Qualit</tspan><tspan class="cls-93" x="-30.95" y="24.75">y</tspan><tspan class="cls-37" x="-26.63" y="24.75"> </tspan><tspan class="cls-134" x="-24.6" y="24.75">M</tspan><tspan x="-16.96" y="24.75">e</tspan><tspan class="cls-134" x="-12.48" y="24.75">a</tspan><tspan class="cls-37" x="-8.12" y="24.75">ts and Sausages</tspan></tspan><tspan class="cls-106"><tspan x="-.84" y="37.12">Global Cheese</tspan></tspan><tspan class="cls-106"><tspan x="16.09" y="49.5">Sea Kings</tspan></tspan><tspan class="cls-106"><tspan class="cls-120" x="-19.08" y="61.87">K</tspan><tspan x="-13.73" y="61.87">ensing</tspan><tspan class="cls-121" x="11.39" y="61.87">t</tspan><tspan class="cls-43" x="14.54" y="61.87">on </tspan><tspan class="cls-82" x="26.12" y="61.87">P</tspan><tspan x="31.36" y="61.87">oultr</tspan><tspan class="cls-95" x="49.2" y="61.87">y</tspan></tspan><tspan class="cls-106"><tspan x="-15.67" y="74.25">M</tspan><tspan class="cls-93" x="-7.98" y="74.25">y</tspan><tspan x="-3.66" y="74.25" xml:space="preserve"> Mar</tspan><tspan class="cls-63" x="13.6" y="74.25">k</tspan><tspan class="cls-173" x="17.81" y="74.25">e</tspan><tspan x="22.22" y="74.25">t Ba</tspan><tspan class="cls-63" x="37.38" y="74.25">k</tspan><tspan class="cls-43" x="41.59" y="74.25">er</tspan><tspan class="cls-93" x="49.2" y="74.25">y</tspan></tspan><tspan class="cls-106"><tspan class="cls-131" x="-41.57" y="86.62">N</tspan><tspan class="cls-173" x="-35.42" y="86.62">e</tspan><tspan class="cls-43" x="-31.01" y="86.62">w Se</tspan><tspan class="cls-131" x="-12.8" y="86.62">a</tspan><tspan class="cls-154" x="-8.44" y="86.62">wa</tspan><tspan class="cls-93" x="2.25" y="86.62">y</tspan><tspan x="6.57" y="86.62" xml:space="preserve"> Fish Mar</tspan><tspan class="cls-63" x="41.83" y="86.62">k</tspan><tspan class="cls-173" x="46.04" y="86.62">e</tspan><tspan x="50.45" y="86.62">t</tspan></tspan><tspan class="cls-106"><tspan class="cls-131" x="-20.15" y="99">M</tspan><tspan class="cls-43" x="-12.5" y="99">endel</tspan><tspan class="cls-62" x="8.27" y="99">’</tspan><tspan class="cls-43" x="10.28" y="99">s C</tspan><tspan class="cls-103" x="22.22" y="99">r</tspan><tspan class="cls-43" x="25.22" y="99">eamer</tspan><tspan class="cls-93" x="49.19" y="99">y</tspan></tspan><tspan class="cls-106"><tspan x="13.15" y="111.37">Max </tspan><tspan class="cls-103" x="31.56" y="111.37">&amp;</tspan><tspan x="36.87" y="111.37" xml:space="preserve"> Son</tspan></tspan><tspan class="cls-106"><tspan x="-36.71" y="123.75">S</tspan><tspan class="cls-167" x="-31.51" y="123.75">e</tspan><tspan class="cls-154" x="-27.11" y="123.75">v</tspan><tspan x="-22.91" y="123.75">en Seas Fish Mar</tspan><tspan class="cls-63" x="41.83" y="123.75">k</tspan><tspan class="cls-173" x="46.04" y="123.75">e</tspan><tspan x="50.45" y="123.75">t</tspan></tspan><tspan class="cls-106"><tspan x="-21.69" y="136.12">St.</tspan><tspan class="cls-61" x="-11.18" y="136.12"> </tspan><tspan x="-9.35" y="136.12">And</tspan><tspan class="cls-103" x="6.21" y="136.12">r</tspan><tspan class="cls-170" x="9.21" y="136.12">e</tspan><tspan class="cls-158" x="13.62" y="136.12">w</tspan><tspan class="cls-43" x="20.03" y="136.12">s </tspan><tspan class="cls-82" x="26.12" y="136.12">P</tspan><tspan x="31.36" y="136.12">oultr</tspan><tspan class="cls-95" x="49.2" y="136.12">y</tspan></tspan><tspan class="cls-19"><tspan x="9.66" y="148.5">Ca</tspan><tspan class="cls-140" x="19.92" y="148.5">s</tspan><tspan x="23.94" y="148.5">tle </tspan><tspan class="cls-55" x="35.68" y="148.5">F</tspan><tspan x="40.54" y="148.5">ruit</tspan></tspan><tspan class="cls-19"><tspan x="-45.1" y="160.87">I</tspan><tspan class="cls-146" x="-42.77" y="160.87">n</tspan><tspan class="cls-131" x="-37.98" y="160.87">t</tspan><tspan x="-34.83" y="160.87">ern</tspan><tspan class="cls-134" x="-22.4" y="160.87">a</tspan><tspan x="-18.04" y="160.87">tional </tspan><tspan class="cls-105" x="5.23" y="160.87">F</tspan><tspan x="10.16" y="160.87">ood Mar</tspan><tspan class="cls-63" x="41.83" y="160.87">k</tspan><tspan class="cls-170" x="46.04" y="160.87">e</tspan><tspan x="50.45" y="160.87">t</tspan></tspan><tspan class="cls-19"><tspan class="cls-49" x="-1.06" y="173.24">T</tspan><tspan x="3.46" y="173.24">ri </tspan><tspan class="cls-158" x="10.66" y="173.24">P</tspan><tspan class="cls-43" x="15.94" y="173.24">acific </tspan><tspan class="cls-110" x="38.58" y="173.24">L</tspan><tspan class="cls-147" x="43.43" y="173.24">t</tspan><tspan x="46.6" y="173.24">d.</tspan></tspan><tspan class="cls-19"><tspan x="26.67" y="185.62">Sanci</tspan><tspan class="cls-62" x="47.58" y="185.62">’</tspan><tspan class="cls-43" x="49.59" y="185.62">s</tspan></tspan><tspan class="cls-19"><tspan x="-28.89" y="197.99">Sun</tspan><tspan class="cls-73" x="-14.12" y="197.99"> </tspan><tspan class="cls-62" x="-12.25" y="197.99">W</tspan><tspan x="-4.67" y="197.99">ah </tspan><tspan class="cls-55" x="6.6" y="197.99">F</tspan><tspan class="cls-43" x="11.46" y="197.99">ruit Mar</tspan><tspan class="cls-65" x="41.83" y="197.99">k</tspan><tspan class="cls-170" x="46.04" y="197.99">e</tspan><tspan x="50.45" y="197.99">t</tspan></tspan><tspan class="cls-19"><tspan class="cls-135" x="7.4" y="210.37">O</tspan><tspan x="13.67" y="210.37">x</tspan><tspan class="cls-82" x="17.95" y="210.37">f</tspan><tspan x="20.96" y="210.37">o</tspan><tspan class="cls-105" x="25.68" y="210.37">r</tspan><tspan x="28.69" y="210.37">d </tspan><tspan class="cls-55" x="35.68" y="210.37">F</tspan><tspan x="40.54" y="210.37">ruit</tspan></tspan><tspan class="cls-19"><tspan class="cls-140" x="-4.7" y="222.74">R</tspan><tspan x=".92" y="222.74">oszle</tspan><tspan class="cls-186" x="20.33" y="222.74">r</tspan><tspan class="cls-62" x="23.52" y="222.74">’</tspan><tspan x="25.53" y="222.74">s </tspan><tspan class="cls-55" x="31.62" y="222.74">F</tspan><tspan x="36.48" y="222.74">ruits</tspan></tspan><tspan class="cls-19"><tspan x="-7.37" y="235.12">J</tspan><tspan class="cls-111" x="-3.98" y="235.12">&amp;</tspan><tspan class="cls-37" x="1.17" y="235.12">J </tspan><tspan class="cls-55" x="6.6" y="235.12">F</tspan><tspan class="cls-43" x="11.46" y="235.12">ruit Mar</tspan><tspan class="cls-63" x="41.83" y="235.12">k</tspan><tspan class="cls-173" x="46.04" y="235.12">e</tspan><tspan x="50.45" y="235.12">t</tspan></tspan><tspan class="cls-19"><tspan x="-27.22" y="247.49">Augu</tspan><tspan class="cls-140" x="-7.06" y="247.49">s</tspan><tspan x="-3.04" y="247.49">ta </tspan><tspan class="cls-55" x="6.6" y="247.49">F</tspan><tspan x="11.46" y="247.49">ruit Mar</tspan><tspan class="cls-63" x="41.83" y="247.49">k</tspan><tspan class="cls-173" x="46.04" y="247.49">e</tspan><tspan x="50.45" y="247.49">t</tspan></tspan><tspan class="cls-19"><tspan class="cls-120" x="-38.61" y="259.87">K</tspan><tspan x="-33.25" y="259.87">ensing</tspan><tspan class="cls-131" x="-8.14" y="259.87">t</tspan><tspan x="-4.98" y="259.87">on </tspan><tspan class="cls-54" x="6.6" y="259.87">F</tspan><tspan x="11.46" y="259.87">ruit Mar</tspan><tspan class="cls-63" x="41.83" y="259.87">k</tspan><tspan class="cls-173" x="46.04" y="259.87">e</tspan><tspan x="50.45" y="259.87">t</tspan></tspan><tspan class="cls-21"><tspan x="-13.56" y="272.24">Caribbean Corne</tspan><tspan class="cls-77" x="50.53" y="272.24">r</tspan></tspan><tspan class="cls-21"><tspan x="-4.43" y="284.62">Essence </tspan><tspan class="cls-150" x="29.34" y="284.62">o</tspan><tspan class="cls-87" x="33.98" y="284.62">f</tspan><tspan class="cls-37" x="36.96" y="284.62" xml:space="preserve"> Li</tspan><tspan class="cls-82" x="46.17" y="284.62">f</tspan><tspan class="cls-43" x="49.18" y="284.62">e</tspan></tspan><tspan class="cls-21"><tspan class="cls-82" x="-21.61" y="296.99">P</tspan><tspan x="-16.38" y="296.99">e</tspan><tspan class="cls-103" x="-11.91" y="296.99">r</tspan><tspan x="-8.91" y="296.99">ola Supermar</tspan><tspan class="cls-63" x="41.83" y="296.99">k</tspan><tspan class="cls-173" x="46.04" y="296.99">e</tspan><tspan x="50.45" y="296.99">t</tspan></tspan><tspan class="cls-21"><tspan class="cls-45" x="12.71" y="309.37">T</tspan><tspan x="17.26" y="309.37">utti </tspan><tspan class="cls-55" x="32.48" y="309.37">F</tspan><tspan class="cls-43" x="37.34" y="309.37">rutti</tspan></tspan><tspan class="cls-21"><tspan class="cls-140" x="-2.18" y="321.74">R</tspan><tspan x="3.44" y="321.74">eg Dr</tspan><tspan class="cls-93" x="23.91" y="321.74">y</tspan><tspan class="cls-37" x="28.23" y="321.74"> </tspan><tspan class="cls-105" x="30.26" y="321.74">F</tspan><tspan x="35.18" y="321.74">oods</tspan></tspan><tspan class="cls-21"><tspan class="cls-169" x="-11.96" y="334.11">U</tspan><tspan x="-6.21" y="334.11">nnamed mar</tspan><tspan class="cls-63" x="41.83" y="334.11">k</tspan><tspan class="cls-173" x="46.04" y="334.11">e</tspan><tspan x="50.45" y="334.11">t</tspan></tspan><tspan class="cls-21"><tspan x="-27.96" y="346.49">Salamanca Bul</tspan><tspan class="cls-103" x="27.99" y="346.49">k</tspan><tspan class="cls-37" x="32.29" y="346.49"> </tspan><tspan class="cls-105" x="34.32" y="346.49">F</tspan><tspan x="39.24" y="346.49">ood</tspan></tspan><tspan class="cls-33"><tspan x="-13.58" y="358.86">Lusitania G</tspan><tspan class="cls-103" x="29.44" y="358.86">r</tspan><tspan x="32.44" y="358.86">ocer</tspan><tspan class="cls-93" x="49.2" y="358.86">y</tspan></tspan><tspan class="cls-33"><tspan x="-31.47" y="371.24">Zimmerma</tspan><tspan class="cls-154" x="10.16" y="371.24">n</tspan><tspan class="cls-62" x="14.88" y="371.24">’</tspan><tspan class="cls-43" x="16.9" y="371.24">s </tspan><tspan class="cls-54" x="22.99" y="371.24">F</tspan><tspan x="27.85" y="371.24">airland</tspan></tspan><tspan class="cls-24"><tspan class="cls-79" x="-26.43" y="383.61">Z</tspan><tspan x="-21.44" y="383.61">en Buddhi</tspan><tspan class="cls-140" x="16.93" y="383.61">s</tspan><tspan x="20.95" y="383.61">t</tspan><tspan class="cls-118" x="24.15" y="383.61"> </tspan><tspan class="cls-51" x="25.94" y="383.61">T</tspan><tspan x="30.22" y="383.61">emple</tspan></tspan></text>
    <text class="cls-10" transform="translate(345.81 98.17)"><tspan class="cls-106"><tspan x="0" y="0">Cheese Magic</tspan></tspan><tspan class="cls-106"><tspan x="0" y="12.37">Co</tspan><tspan class="cls-166" x="10.76" y="12.37">r</tspan><tspan x="13.86" y="12.37">al Sea Fish Mar</tspan><tspan class="cls-69" x="72.71" y="12.37">k</tspan><tspan class="cls-175" x="77" y="12.37">e</tspan><tspan x="81.48" y="12.37">t</tspan></tspan><tspan class="cls-106"><tspan x="0" y="24.75">Sanaga</tspan><tspan class="cls-156" x="28.65" y="24.75">n</tspan><tspan class="cls-58" x="33.46" y="24.75">’</tspan><tspan x="35.51" y="24.75">s </tspan><tspan class="cls-126" x="41.71" y="24.75">M</tspan><tspan x="49.49" y="24.75">e</tspan><tspan class="cls-133" x="54.04" y="24.75">a</tspan><tspan class="cls-36" x="58.48" y="24.75">t </tspan><tspan class="cls-126" x="63.81" y="24.75">L</tspan><tspan x="68.98" y="24.75">oc</tspan><tspan class="cls-69" x="78.29" y="24.75">k</tspan><tspan class="cls-42" x="82.58" y="24.75">e</tspan><tspan class="cls-78" x="87.13" y="24.75">r</tspan></tspan><tspan class="cls-106"><tspan x="0" y="37.12">Global Cheese</tspan></tspan><tspan class="cls-106"><tspan x="0" y="49.5">Sea Kings</tspan></tspan><tspan class="cls-30"><tspan x="0" y="61.87">Vi</tspan><tspan class="cls-145" x="7.99" y="61.87">n</tspan><tspan x="12.87" y="61.87">tage</tspan></tspan><tspan class="cls-30"><tspan x="0" y="74.25">6x8 Mar</tspan><tspan class="cls-69" x="32.38" y="74.25">k</tspan><tspan class="cls-175" x="36.66" y="74.25">e</tspan><tspan x="41.15" y="74.25">t</tspan></tspan><tspan class="cls-30"><tspan x="0" y="86.62">Flamingo</tspan><tspan class="cls-60" x="36.08" y="86.62"> </tspan><tspan x="37.95" y="86.62">Vi</tspan><tspan class="cls-145" x="45.94" y="86.62">n</tspan><tspan x="50.82" y="86.62">tage</tspan></tspan><tspan class="cls-30"><tspan class="cls-126" x="0" y="99">L</tspan><tspan class="cls-156" x="5.17" y="99">ov</tspan><tspan class="cls-42" x="14.16" y="99">e, Cali</tspan><tspan class="cls-142" x="37.53" y="99">s</tspan><tspan x="41.62" y="99">ta</tspan></tspan><tspan class="cls-30"><tspan x="0" y="111.37">lo</tspan><tspan class="cls-136" x="6.88" y="111.37">s</tspan><tspan x="10.97" y="111.37">t gen vi</tspan><tspan class="cls-145" x="39.26" y="111.37">n</tspan><tspan x="44.14" y="111.37">tage</tspan></tspan><tspan class="cls-30"><tspan class="cls-52" x="0" y="123.75">T</tspan><tspan class="cls-42" x="4.35" y="123.75">ech </tspan><tspan class="cls-81" x="20.39" y="123.75">Z</tspan><tspan x="25.47" y="123.75">one</tspan></tspan><tspan class="cls-30"><tspan x="0" y="136.12">Bazaa</tspan><tspan class="cls-74" x="23.26" y="136.12">r</tspan></tspan><tspan class="cls-1"><tspan x="0" y="148.5">Augu</tspan><tspan class="cls-142" x="20.51" y="148.5">s</tspan><tspan x="24.6" y="148.5">ta C</tspan><tspan class="cls-157" x="40.37" y="148.5">o</tspan><tspan class="cls-81" x="45.09" y="148.5">ff</tspan><tspan x="50.99" y="148.5">ee Ba</tspan><tspan class="cls-74" x="72.26" y="148.5">r</tspan></tspan><tspan class="cls-1"><tspan class="cls-112" x="0" y="160.87">K</tspan><tspan class="cls-42" x="5.45" y="160.87">ensing</tspan><tspan class="cls-126" x="31.01" y="160.87">t</tspan><tspan class="cls-36" x="34.22" y="160.87">on Ki</tspan><tspan class="cls-126" x="53.81" y="160.87">t</tspan><tspan class="cls-42" x="57.01" y="160.87">chen</tspan></tspan><tspan class="cls-1"><tspan x="0" y="173.24">Knoc</tspan><tspan class="cls-69" x="19.95" y="173.24">k</tspan><tspan x="24.23" y="173.24">out Chic</tspan><tspan class="cls-69" x="56.63" y="173.24">k</tspan><tspan class="cls-42" x="60.92" y="173.24">en</tspan></tspan><tspan class="cls-1"><tspan x="0" y="185.62">S</tspan><tspan class="cls-166" x="5.3" y="185.62">e</tspan><tspan class="cls-161" x="9.77" y="185.62">v</tspan><tspan x="14.05" y="185.62">en Li</tspan><tspan class="cls-161" x="32.88" y="185.62">v</tspan><tspan x="37.15" y="185.62">es</tspan></tspan><tspan class="cls-1"><tspan x="0" y="197.99">Daan Go Ca</tspan><tspan class="cls-69" x="45.56" y="197.99">k</tspan><tspan x="49.84" y="197.99">e Lab</tspan></tspan><tspan class="cls-1"><tspan x="0" y="210.37">L</tspan><tspan class="cls-126" x="5.22" y="210.37">a</tspan><tspan x="9.66" y="210.37">tin</tspan><tspan class="cls-116" x="19.91" y="210.37"> </tspan><tspan class="cls-53" x="21.73" y="210.37">T</tspan><tspan class="cls-42" x="26.15" y="210.37">a</tspan><tspan class="cls-136" x="30.64" y="210.37">s</tspan><tspan class="cls-126" x="34.73" y="210.37">t</tspan><tspan class="cls-42" x="37.94" y="210.37">e</tspan></tspan><tspan class="cls-1"><tspan x="0" y="222.74">Dolce Gel</tspan><tspan class="cls-126" x="36.93" y="222.74">at</tspan><tspan x="44.58" y="222.74">o</tspan></tspan><tspan class="cls-19"><tspan x="0" y="235.12">Augu</tspan><tspan class="cls-142" x="20.51" y="235.12">s</tspan><tspan x="24.6" y="235.12">ta </tspan><tspan class="cls-56" x="34.42" y="235.12">F</tspan><tspan x="39.36" y="235.12">ruit Mar</tspan><tspan class="cls-68" x="70.27" y="235.12">k</tspan><tspan class="cls-175" x="74.56" y="235.12">e</tspan><tspan x="79.05" y="235.12">t</tspan></tspan><tspan class="cls-19"><tspan class="cls-112" x="0" y="247.49">K</tspan><tspan class="cls-42" x="5.45" y="247.49">ensing</tspan><tspan class="cls-126" x="31.01" y="247.49">t</tspan><tspan class="cls-36" x="34.22" y="247.49">on </tspan><tspan class="cls-56" x="46.01" y="247.49">F</tspan><tspan class="cls-36" x="50.95" y="247.49">ruit Mar</tspan><tspan class="cls-69" x="81.86" y="247.49">k</tspan><tspan class="cls-185" x="86.15" y="247.49">e</tspan><tspan x="90.64" y="247.49">t</tspan></tspan><tspan class="cls-21"><tspan x="0" y="259.87">Caribbean Corne</tspan><tspan class="cls-74" x="65.22" y="259.87">r</tspan></tspan><tspan class="cls-21"><tspan x="0" y="272.24">Essence </tspan><tspan class="cls-148" x="34.38" y="272.24">o</tspan><tspan class="cls-85" x="39.09" y="272.24">f</tspan><tspan x="42.13" y="272.24" xml:space="preserve"> Li</tspan><tspan class="cls-107" x="51.5" y="272.24">f</tspan><tspan class="cls-42" x="54.56" y="272.24">e</tspan></tspan><tspan class="cls-21"><tspan class="cls-81" x="0" y="284.62">P</tspan><tspan class="cls-42" x="5.33" y="284.62">e</tspan><tspan class="cls-100" x="9.88" y="284.62">r</tspan><tspan x="12.93" y="284.62">ola Supermar</tspan><tspan class="cls-69" x="64.57" y="284.62">k</tspan><tspan class="cls-175" x="68.85" y="284.62">e</tspan><tspan x="73.34" y="284.62">t</tspan></tspan><tspan class="cls-21"><tspan class="cls-50" x="0" y="296.99">T</tspan><tspan x="4.63" y="296.99">utti </tspan><tspan class="cls-57" x="20.12" y="296.99">F</tspan><tspan x="25.06" y="296.99">rutti</tspan></tspan><tspan class="cls-29"><tspan class="cls-108" x="0" y="309.37">V</tspan><tspan class="cls-42" x="5.5" y="309.37">aca</tspan><tspan class="cls-145" x="18.98" y="309.37">n</tspan><tspan x="23.86" y="309.37">t</tspan></tspan><tspan class="cls-29"><tspan class="cls-108" x="0" y="321.74">V</tspan><tspan class="cls-42" x="5.5" y="321.74">aca</tspan><tspan class="cls-145" x="18.98" y="321.74">n</tspan><tspan x="23.86" y="321.74">t</tspan></tspan><tspan class="cls-29"><tspan class="cls-108" x="0" y="334.11">V</tspan><tspan class="cls-42" x="5.5" y="334.11">aca</tspan><tspan class="cls-145" x="18.98" y="334.11">n</tspan><tspan x="23.86" y="334.11">t</tspan></tspan><tspan class="cls-24"><tspan x="0" y="346.49">Ink</tspan><tspan class="cls-94" x="11.79" y="346.49">y</tspan><tspan x="16.19" y="346.49" xml:space="preserve"> Dink</tspan><tspan class="cls-94" x="35.81" y="346.49">y</tspan><tspan class="cls-116" x="40.2" y="346.49"> </tspan><tspan class="cls-53" x="42.02" y="346.49">T</tspan><tspan class="cls-126" x="46.45" y="346.49">a</tspan><tspan x="50.88" y="346.49">t</tspan><tspan class="cls-126" x="54.14" y="346.49">t</tspan><tspan x="57.35" y="346.49">oo and Pie</tspan><tspan class="cls-100" x="97.63" y="346.49">r</tspan><tspan class="cls-42" x="100.68" y="346.49">cing</tspan></tspan><tspan class="cls-24"><tspan x="0" y="358.86">Kruda</tspan><tspan class="cls-74" x="23.27" y="358.86">r</tspan><tspan x="26.26" y="358.86" xml:space="preserve"> Mu</tspan><tspan class="cls-161" x="40.98" y="358.86">a</tspan><tspan class="cls-89" x="45.37" y="358.86">y</tspan><tspan class="cls-116" x="49.76" y="358.86"> </tspan><tspan x="51.58" y="358.86">Thai</tspan></tspan><tspan class="cls-26"><tspan x="0" y="371.24">One Pla</tspan><tspan class="cls-145" x="29.96" y="371.24">n</tspan><tspan x="34.84" y="371.24">t</tspan></tspan><tspan class="cls-33"><tspan class="cls-164" x="0" y="383.61">T</tspan><tspan class="cls-44" x="5.29" y="383.61">&amp;</tspan><tspan class="cls-116" x="10" y="383.61">T</tspan><tspan x="15.12" y="383.61" xml:space="preserve"> Supermar</tspan><tspan class="cls-69" x="55.39" y="383.61">k</tspan><tspan class="cls-175" x="59.67" y="383.61">e</tspan><tspan x="64.16" y="383.61">t</tspan></tspan></text>
    <text class="cls-32" transform="translate(232.05 98.91)"><tspan class="cls-106"><tspan x="0" y="0">●</tspan></tspan><tspan class="cls-106"><tspan x="0" y="12.37">●</tspan></tspan><tspan class="cls-106"><tspan x="0" y="24.75">●</tspan></tspan><tspan class="cls-106"><tspan x="0" y="37.12">●</tspan></tspan><tspan class="cls-106"><tspan x="0" y="49.5">●</tspan></tspan><tspan class="cls-106"><tspan x="0" y="61.87">●</tspan></tspan><tspan class="cls-106"><tspan x="0" y="74.25">●</tspan></tspan><tspan class="cls-106"><tspan x="0" y="86.62">●</tspan></tspan><tspan class="cls-106"><tspan x="0" y="99">●</tspan></tspan><tspan class="cls-106"><tspan x="0" y="111.37">●</tspan></tspan><tspan class="cls-106"><tspan x="0" y="123.75">●</tspan></tspan><tspan class="cls-106"><tspan x="0" y="136.12">●</tspan></tspan><tspan class="cls-19"><tspan x="0" y="148.5">●</tspan></tspan><tspan class="cls-19"><tspan x="0" y="160.87">●</tspan></tspan><tspan class="cls-19"><tspan x="0" y="173.24">●</tspan></tspan><tspan class="cls-19"><tspan x="0" y="185.62">●</tspan></tspan><tspan class="cls-19"><tspan x="0" y="197.99">●</tspan></tspan><tspan class="cls-19"><tspan x="0" y="210.37">●</tspan></tspan><tspan class="cls-19"><tspan x="0" y="222.74">●</tspan></tspan><tspan class="cls-19"><tspan x="0" y="235.12">●</tspan></tspan><tspan class="cls-19"><tspan x="0" y="247.49">●</tspan></tspan><tspan class="cls-19"><tspan x="0" y="259.87">●</tspan></tspan><tspan class="cls-21"><tspan x="0" y="272.24">●</tspan></tspan><tspan class="cls-21"><tspan x="0" y="284.62">●</tspan></tspan><tspan class="cls-21"><tspan x="0" y="296.99">●</tspan></tspan><tspan class="cls-21"><tspan x="0" y="309.37">●</tspan></tspan><tspan class="cls-21"><tspan x="0" y="321.74">●</tspan></tspan><tspan class="cls-21"><tspan x="0" y="334.11">●</tspan></tspan><tspan class="cls-21"><tspan x="0" y="346.49">●</tspan></tspan><tspan class="cls-33"><tspan x="0" y="358.86">●</tspan></tspan><tspan class="cls-33"><tspan x="0" y="371.24">●</tspan></tspan><tspan class="cls-24"><tspan x="0" y="383.61">●</tspan></tspan></text>
    <text class="cls-32" transform="translate(334.08 98.44)"><tspan class="cls-106"><tspan x="0" y="0">●</tspan></tspan><tspan class="cls-106"><tspan x="0" y="12.37">●</tspan></tspan><tspan class="cls-106"><tspan x="0" y="24.75">●</tspan></tspan><tspan class="cls-106"><tspan x="0" y="37.12">●</tspan></tspan><tspan class="cls-106"><tspan x="0" y="49.5">●</tspan></tspan><tspan class="cls-30"><tspan x="0" y="61.87">●</tspan></tspan><tspan class="cls-30"><tspan x="0" y="74.25">●</tspan></tspan><tspan class="cls-30"><tspan x="0" y="86.62">●</tspan></tspan><tspan class="cls-30"><tspan x="0" y="99">●</tspan></tspan><tspan class="cls-30"><tspan x="0" y="111.37">●</tspan></tspan><tspan class="cls-30"><tspan x="0" y="123.75">●</tspan></tspan><tspan class="cls-30"><tspan x="0" y="136.12">●</tspan></tspan><tspan class="cls-1"><tspan x="0" y="148.5">●</tspan></tspan><tspan class="cls-1"><tspan x="0" y="160.87">●</tspan></tspan><tspan class="cls-1"><tspan x="0" y="173.24">●</tspan></tspan><tspan class="cls-1"><tspan x="0" y="185.62">●</tspan></tspan><tspan class="cls-1"><tspan x="0" y="197.99">●</tspan></tspan><tspan class="cls-1"><tspan x="0" y="210.37">●</tspan></tspan><tspan class="cls-1"><tspan x="0" y="222.74">●</tspan></tspan><tspan class="cls-19"><tspan x="0" y="235.12">●</tspan></tspan><tspan class="cls-21"><tspan x="0" y="247.49">●</tspan></tspan><tspan class="cls-21"><tspan x="0" y="259.87">●</tspan></tspan><tspan class="cls-21"><tspan x="0" y="272.24">●</tspan></tspan><tspan class="cls-21"><tspan x="0" y="284.62">●</tspan></tspan><tspan class="cls-21"><tspan x="0" y="296.99">●</tspan></tspan><tspan class="cls-29"><tspan x="0" y="309.37">●</tspan></tspan><tspan class="cls-29"><tspan x="0" y="321.74">●</tspan></tspan><tspan class="cls-29"><tspan x="0" y="334.11">●</tspan></tspan><tspan class="cls-24"><tspan x="0" y="346.49">●</tspan></tspan><tspan class="cls-24"><tspan x="0" y="358.86">●</tspan></tspan><tspan class="cls-26"><tspan x="0" y="371.24">●</tspan></tspan><tspan class="cls-33"><tspan x="0" y="383.61">●</tspan></tspan></text>
    <text/>
    <text class="cls-17" transform="translate(24.91 96.62)"><tspan x="0" y="0">R</tspan><tspan class="cls-124" x="6.29" y="0">a</tspan><tspan x="11.13" y="0">w </tspan><tspan class="cls-83" x="20.6" y="0">f</tspan><tspan x="23.94" y="0">oods</tspan><tspan x="35.65" y="11.09">12</tspan></text>
    <text class="cls-15" transform="translate(32.76 245.71)"><tspan x="0" y="0">P</tspan><tspan class="cls-102" x="5.95" y="0">r</tspan><tspan x="9.28" y="0">oduce</tspan><tspan x="25.57" y="11.09">10</tspan></text>
    <text class="cls-4" transform="translate(24.87 370.42)"><tspan x="0" y="0">Dr</tspan><tspan class="cls-96" x="10.08" y="0">y</tspan><tspan x="14.88" y="0" xml:space="preserve"> goods</tspan><tspan x="38.11" y="11.09">7</tspan></text>
    <text class="cls-11" transform="translate(12.71 453.05)"><tspan x="0" y="0">Supermar</tspan><tspan class="cls-70" x="41.71" y="0">k</tspan><tspan class="cls-182" x="46.39" y="0">e</tspan><tspan x="51.29" y="0">t</tspan><tspan x="49.54" y="11.09">2</tspan></text>
    <text class="cls-12" transform="translate(30.75 483.73)"><tspan x="0" y="0">Service 1</tspan></text>
    <text class="cls-17" transform="translate(500.51 96.84)"><tspan x="0" y="0">R</tspan><tspan class="cls-124" x="6.29" y="0">a</tspan><tspan x="11.13" y="0">w </tspan><tspan class="cls-83" x="20.6" y="0">f</tspan><tspan x="23.94" y="0">oods</tspan><tspan x="0" y="11.09">5</tspan></text>
    <text class="cls-15" transform="translate(500.32 333.54)"><tspan x="0" y="0">P</tspan><tspan class="cls-102" x="5.95" y="0">r</tspan><tspan x="9.28" y="0">oduce</tspan><tspan x="0" y="11.09">2</tspan></text>
    <text class="cls-4" transform="translate(500.93 358.29)"><tspan x="0" y="0">Dr</tspan><tspan class="cls-96" x="10.08" y="0">y</tspan><tspan x="14.88" y="0" xml:space="preserve"> goods</tspan><tspan x="0" y="11.09">4</tspan></text>
    <text class="cls-2" transform="translate(501.77 245.29)"><tspan class="cls-138" x="0" y="0">R</tspan><tspan class="cls-34" x="6.24" y="0">e</tspan><tspan class="cls-141" x="11.21" y="0">s</tspan><tspan x="15.68" y="0">tau</tspan><tspan class="cls-162" x="29.41" y="0">r</tspan><tspan x="32.79" y="0">a</tspan><tspan class="cls-143" x="37.69" y="0">n</tspan><tspan x="43.01" y="0">t</tspan><tspan x="0" y="11.09">7</tspan></text>
    <text class="cls-7" transform="translate(501.77 160.04)"><tspan class="cls-138" x="0" y="0">R</tspan><tspan class="cls-182" x="6.24" y="0">e</tspan><tspan x="11.14" y="0">tail</tspan><tspan x="0" y="11.09">7</tspan></text>
    <text class="cls-11" transform="translate(500.79 485.73)"><tspan x="0" y="0">Supermar</tspan><tspan class="cls-70" x="41.71" y="0">k</tspan><tspan class="cls-182" x="46.39" y="0">e</tspan><tspan x="51.29" y="0">t 1</tspan></text>
    <text class="cls-5" transform="translate(500.79 471.74)"><tspan x="0" y="0">Cannabis 1</tspan></text>
    <text class="cls-12" transform="translate(501.77 443.91)"><tspan x="0" y="0">Service</tspan><tspan x="0" y="11.09">2</tspan></text>
    <text class="cls-9" transform="translate(502.1 406.56)"><tspan class="cls-109" x="0" y="0">V</tspan><tspan x="6.01" y="0">aca</tspan><tspan class="cls-144" x="20.73" y="0">n</tspan><tspan class="cls-39" x="26.05" y="0">t</tspan><tspan x="0" y="11.09">3</tspan></text>
  </g>
</svg>