<?xml version="1.0" encoding="UTF-8"?>
<svg id="Layer_1" xmlns="http://www.w3.org/2000/svg" version="1.1" viewBox="0 0 1110.4 864">
  <!-- Generator: Adobe Illustrator 29.6.1, SVG Export Plug-In . SVG Version: 2.1.1 Build 9)  -->
  <defs>
    <style>
      .st0 {
        opacity: .3;
      }

      .st0, .st1, .st2, .st3, .st4, .st5, .st6, .st7, .st8, .st9, .st10, .st11, .st12, .st13, .st14, .st15, .st16, .st17, .st18, .st19, .st20, .st21, .st22 {
        isolation: isolate;
      }

      .st0, .st2, .st3, .st23, .st5, .st24, .st25, .st8, .st26, .st27, .st28, .st11, .st12, .st29, .st30, .st14, .st31, .st32, .st18, .st20, .st22 {
        stroke-miterlimit: 10;
      }

      .st0, .st2, .st3, .st23, .st5, .st24, .st25, .st8, .st27, .st28, .st11, .st12, .st29, .st30, .st14, .st31, .st32, .st18, .st22 {
        stroke: #fff;
      }

      .st0, .st3, .st5, .st8, .st11, .st12, .st14, .st32, .st18 {
        fill: #6559a5;
      }

      .st1 {
        font-size: 28px;
      }

      .st1, .st4, .st6, .st9, .st10, .st13, .st15, .st16, .st17, .st19, .st21 {
        font-family: OpenSans-Semibold, 'Open Sans';
        font-weight: 600;
      }

      .st2, .st30, .st22 {
        fill: #e44b3b;
      }

      .st2, .st14 {
        opacity: .8;
      }

      .st3, .st22 {
        opacity: .5;
      }

      .st4 {
        fill: #1c807a;
      }

      .st4, .st6, .st9, .st10, .st13, .st17, .st19, .st21 {
        font-size: 18.4px;
      }

      .st23 {
        fill: #809fd2;
      }

      .st5 {
        opacity: .6;
      }

      .st24 {
        fill: #1b7f78;
      }

      .st6 {
        fill: #e44c3b;
      }

      .st25, .st9 {
        fill: #e0c442;
      }

      .st7 {
        fill: gray;
        font-family: OpenSans, 'Open Sans';
        font-size: 12px;
      }

      .st8 {
        opacity: .7;
      }

      .st26 {
        stroke: #231f20;
      }

      .st26, .st27 {
        display: none;
      }

      .st26, .st27, .st33, .st20 {
        fill: none;
      }

      .st10 {
        fill: #869dd0;
      }

      .st28, .st13 {
        fill: #47bfb4;
      }

      .st33 {
        stroke: #000;
        stroke-linejoin: round;
        stroke-width: 1.1px;
      }

      .st11, .st20 {
        opacity: .4;
      }

      .st12 {
        opacity: .2;
      }

      .st29, .st21 {
        fill: #5ac6d9;
      }

      .st15 {
        font-size: 8.5px;
      }

      .st16 {
        font-size: 14px;
      }

      .st16, .st19 {
        fill: #635ba7;
      }

      .st31, .st17 {
        fill: #fff;
      }

      .st18 {
        opacity: .9;
      }

      .st20 {
        stroke: #6559a5;
        stroke-width: .6px;
      }
    </style>
  </defs>
  <g id="line">
    <line class="st20" x1="253.2" y1="363.5" x2="231.9" y2="318.1"/>
    <line class="st20" x1="251.4" y1="368.3" x2="231.9" y2="339.4"/>
    <line class="st20" x1="250.6" y1="375.5" x2="232.6" y2="357.5"/>
    <line class="st20" x1="248" y1="384.1" x2="232.6" y2="374.2"/>
  </g>
  <polygon class="st5" points="246.7 427.8 246.8 421.4 247 415.1 247.4 408.8 298.8 412.4 298.5 417.6 298.3 422.9 298.2 428.2 246.7 427.8"/>
  <polygon class="st3" points="247.4 408.8 247.9 402.5 248.5 396.2 249.3 390 300.4 396.7 299.7 401.9 299.2 407.1 298.8 412.4 247.4 408.8"/>
  <polygon class="st11" points="249.3 390 249.9 385.3 250.6 380.6 301.5 388.8 300.9 392.7 300.4 396.7 249.3 390"/>
  <polygon class="st8" points="247.1 446.7 246.8 440.4 246.7 434.1 246.7 427.8 298.2 428.2 298.2 433.4 298.3 438.7 298.6 443.9 247.1 446.7"/>
  <polygon class="st14" points="251.4 484.3 250.5 479 249.7 473.6 249 468.3 248.4 462.9 247.9 457.5 247.4 452.1 247.1 446.7 298.6 443.9 298.8 448.4 299.2 452.9 299.6 457.4 300.2 461.9 300.8 466.4 301.4 470.9 302.2 475.3 251.4 484.3"/>
  <polygon class="st14" points="271.8 552.3 269.7 547.2 267.7 542.2 265.7 537 263.9 531.9 262.1 526.7 260.5 521.5 258.9 516.3 257.4 511 256 505.7 254.7 500.4 253.6 495.1 252.4 489.7 251.4 484.3 302.2 475.3 303 479.8 303.9 484.2 304.9 488.7 306 493.1 307.2 497.5 308.4 501.9 309.7 506.3 311.1 510.6 312.5 514.9 314.1 519.2 315.7 523.5 317.4 527.7 319.1 531.9 271.8 552.3"/>
  <polygon class="st18" points="334.7 646.2 331 642.3 327.3 638.4 323.7 634.3 320.1 630.2 316.7 626.1 313.3 621.8 309.9 617.6 306.7 613.2 303.5 608.8 300.4 604.4 297.4 599.9 294.5 595.3 291.6 590.7 288.9 586.1 286.2 581.4 283.6 576.6 281.1 571.9 278.6 567 276.3 562.1 274 557.2 271.8 552.3 319.1 531.9 321 536 322.9 540.1 324.8 544.2 326.9 548.2 329 552.2 331.1 556.2 333.4 560.1 335.7 564 338.1 567.8 340.5 571.6 343 575.4 345.6 579.1 348.2 582.7 350.9 586.3 353.7 589.9 356.5 593.4 359.4 596.9 362.4 600.3 365.4 603.7 368.4 607 371.6 610.2 334.7 646.2"/>
  <polygon class="st32" points="574.8 738.7 569.4 739 564 739.2 558.6 739.3 553.1 739.3 547.7 739.2 542.3 739 536.9 738.7 531.5 738.4 526.1 737.9 520.7 737.3 515.4 736.7 510 735.9 504.6 735.1 499.3 734.1 494 733.1 488.7 731.9 483.4 730.7 478.2 729.4 472.9 728 467.7 726.5 462.6 724.9 457.4 723.2 452.3 721.5 447.2 719.6 442.2 717.7 437.1 715.6 432.2 713.5 427.2 711.3 422.3 709 417.4 706.6 412.6 704.2 407.8 701.6 403.1 699 398.4 696.2 393.8 693.5 389.2 690.6 384.7 687.6 380.2 684.6 375.8 681.5 371.4 678.3 367.1 675 362.8 671.7 358.6 668.2 354.5 664.7 350.4 661.2 346.4 657.6 342.4 653.8 338.5 650.1 334.7 646.2 371.6 610.2 374.8 613.4 378 616.6 381.3 619.6 384.6 622.7 388 625.6 391.5 628.6 395 631.4 398.5 634.2 402.1 636.9 405.8 639.6 409.5 642.2 413.2 644.7 417 647.2 420.8 649.6 424.7 651.9 428.6 654.2 432.5 656.4 436.5 658.5 440.5 660.5 444.6 662.5 448.7 664.4 452.8 666.3 456.9 668 461.1 669.7 465.3 671.4 469.6 672.9 473.8 674.4 478.1 675.8 482.4 677.1 486.8 678.4 491.1 679.5 495.5 680.6 499.9 681.6 504.3 682.6 508.7 683.4 513.2 684.2 517.6 684.9 522.1 685.6 526.6 686.1 531.1 686.6 535.6 687 540.1 687.3 544.6 687.5 549.1 687.7 553.6 687.8 558.1 687.8 562.6 687.7 567.1 687.5 571.6 687.3 574.8 738.7"/>
  <polygon class="st22" points="653.7 723.5 648.2 725.2 642.7 726.9 637.1 728.5 631.6 729.9 626 731.3 620.4 732.5 614.7 733.7 609.1 734.7 603.4 735.7 597.7 736.5 592 737.2 586.3 737.8 580.5 738.3 574.8 738.7 571.6 687.3 576.4 687 581.2 686.5 586 686 590.7 685.4 595.5 684.7 600.2 683.9 604.9 683.1 609.6 682.1 614.3 681.1 619 679.9 623.6 678.7 628.2 677.4 632.8 676 637.4 674.6 653.7 723.5"/>
  <polygon class="st2" points="741.4 677.5 737 680.7 732.4 683.9 727.9 687.1 723.3 690.1 718.6 693 713.9 695.9 709.1 698.7 704.3 701.4 699.4 704 694.5 706.5 689.5 708.9 684.5 711.3 679.4 713.5 674.4 715.7 669.2 717.8 664.1 719.8 658.9 721.7 653.7 723.5 637.4 674.6 641.7 673.1 646 671.5 650.3 669.8 654.6 668.1 658.9 666.3 663.1 664.4 667.2 662.5 671.4 660.5 675.5 658.3 679.5 656.2 683.5 653.9 687.5 651.6 691.5 649.2 695.4 646.8 699.2 644.2 703 641.6 706.8 639 710.5 636.2 741.4 677.5"/>
  <polygon class="st30" points="820.4 270.1 823.2 274.7 825.9 279.4 828.5 284.2 831 289 833.4 293.8 835.7 298.7 838 303.6 840.2 308.6 842.3 313.6 844.3 318.6 846.2 323.7 848 328.8 849.7 333.9 851.4 339.1 852.9 344.3 854.4 349.5 855.7 354.7 857 360 858.2 365.3 859.3 370.6 860.3 375.9 861.2 381.3 862 386.6 862.7 392 863.3 397.4 863.8 402.7 864.3 408.1 864.6 413.5 864.9 419 865 424.4 865.1 429.8 865 435.2 864.9 440.6 864.6 446 864.3 451.4 863.9 456.8 863.4 462.2 862.8 467.6 862.1 473 861.3 478.3 860.4 483.7 859.4 489 858.3 494.3 857.2 499.6 855.9 504.9 854.5 510.1 853.1 515.3 851.6 520.5 849.9 525.7 848.2 530.8 846.4 535.9 844.5 541 842.5 546 840.4 551 838.3 556 836 560.9 833.7 565.8 831.3 570.6 828.8 575.5 826.2 580.2 823.5 584.9 820.8 589.6 817.9 594.2 815 598.8 812 603.3 809 607.7 805.8 612.1 802.6 616.5 799.3 620.8 795.9 625 792.5 629.2 788.9 633.3 785.3 637.4 781.7 641.3 777.9 645.3 774.1 649.1 770.3 652.9 766.3 656.6 762.3 660.3 758.3 663.9 754.1 667.4 750 670.8 745.7 674.2 741.4 677.5 710.5 636.2 714.1 633.5 717.6 630.7 721.1 627.8 724.5 624.9 727.9 621.9 731.3 618.9 734.5 615.8 737.8 612.6 740.9 609.4 744 606.1 747.1 602.8 750.1 599.4 753 596 755.9 592.5 758.7 589 761.5 585.4 764.1 581.8 766.8 578.1 769.3 574.4 771.8 570.7 774.3 566.9 776.6 563 778.9 559.1 781.1 555.2 783.3 551.2 785.4 547.2 787.4 543.2 789.3 539.1 791.2 535 793 530.9 794.7 526.7 796.4 522.5 798 518.3 799.5 514 800.9 509.7 802.3 505.4 803.5 501.1 804.8 496.8 805.9 492.4 806.9 488 807.9 483.6 808.8 479.2 809.6 474.7 810.4 470.3 811 465.8 811.6 461.4 812.1 456.9 812.6 452.4 812.9 447.9 813.2 443.4 813.4 438.9 813.5 434.4 813.5 429.8 813.5 425.3 813.4 420.8 813.2 416.3 812.9 411.8 812.5 407.3 812.1 402.8 811.6 398.3 811 393.9 810.3 389.4 809.5 384.9 808.7 380.5 807.8 376.1 806.8 371.7 805.7 367.3 804.6 362.9 803.4 358.6 802.1 354.3 800.7 350 799.3 345.7 797.8 341.4 796.2 337.2 794.5 333 792.8 328.9 791 324.7 789.1 320.6 787.1 316.6 785.1 312.5 783 308.5 780.9 304.6 778.6 300.6 776.3 296.8 820.4 270.1"/>
  <path class="st33" d="M592,123.5"/>
  <line class="st33" x1="556.6" y1="430.6" x2="556.6" y2="430.6"/>
  <line class="st33" x1="556.6" y1="430.6" x2="556.6" y2="430.6"/>
  <line class="st33" x1="556.6" y1="430.6" x2="556.6" y2="430.6"/>
  <line class="st33" x1="556.6" y1="430.6" x2="556.6" y2="430.6"/>
  <line class="st33" x1="556.6" y1="430.6" x2="556.6" y2="430.6"/>
  <line class="st33" x1="556.6" y1="430.6" x2="556.6" y2="430.6"/>
  <line class="st33" x1="556.6" y1="430.6" x2="556.6" y2="430.6"/>
  <line class="st33" x1="556.6" y1="430.6" x2="556.6" y2="430.6"/>
  <line class="st33" x1="556.6" y1="430.6" x2="556.6" y2="430.6"/>
  <line class="st33" x1="556.6" y1="430.6" x2="556.6" y2="430.6"/>
  <line class="st33" x1="556.6" y1="430.6" x2="556.6" y2="430.6"/>
  <line class="st33" x1="556.6" y1="430.6" x2="556.6" y2="430.6"/>
  <line class="st33" x1="556.6" y1="430.6" x2="556.6" y2="430.6"/>
  <line class="st33" x1="556.6" y1="430.6" x2="556.6" y2="430.6"/>
  <line class="st33" x1="556.6" y1="430.6" x2="556.6" y2="430.6"/>
  <line class="st33" x1="556.6" y1="430.6" x2="556.6" y2="430.6"/>
  <line class="st33" x1="556.6" y1="430.6" x2="556.6" y2="430.6"/>
  <line class="st33" x1="556.6" y1="430.6" x2="556.6" y2="430.6"/>
  <line class="st33" x1="556.6" y1="430.6" x2="556.6" y2="430.6"/>
  <line class="st33" x1="556.6" y1="430.6" x2="556.6" y2="430.6"/>
  <line class="st33" x1="556.6" y1="430.6" x2="556.6" y2="430.6"/>
  <line class="st33" x1="556.6" y1="430.6" x2="556.6" y2="430.6"/>
  <line class="st33" x1="556.6" y1="430.6" x2="556.6" y2="430.6"/>
  <line class="st33" x1="556.6" y1="430.6" x2="556.6" y2="430.6"/>
  <line class="st33" x1="556.6" y1="430.6" x2="556.6" y2="430.6"/>
  <line class="st33" x1="556.6" y1="430.6" x2="556.6" y2="430.6"/>
  <line class="st33" x1="556.6" y1="430.6" x2="556.6" y2="430.6"/>
  <line class="st33" x1="556.6" y1="430.6" x2="556.6" y2="430.6"/>
  <line class="st33" x1="556.6" y1="430.6" x2="556.6" y2="430.6"/>
  <line class="st33" x1="556.6" y1="430.6" x2="556.6" y2="430.6"/>
  <line class="st33" x1="556.6" y1="430.6" x2="556.6" y2="430.6"/>
  <line class="st33" x1="556.6" y1="430.6" x2="556.6" y2="430.6"/>
  <line class="st33" x1="556.6" y1="430.6" x2="556.6" y2="430.6"/>
  <line class="st33" x1="556.6" y1="430.6" x2="556.6" y2="430.6"/>
  <line class="st33" x1="556.6" y1="430.6" x2="556.6" y2="430.6"/>
  <line class="st33" x1="556.6" y1="430.6" x2="556.6" y2="430.6"/>
  <line class="st33" x1="556.6" y1="430.6" x2="556.6" y2="430.6"/>
  <line class="st33" x1="556.6" y1="430.6" x2="556.6" y2="430.6"/>
  <line class="st33" x1="556.6" y1="430.6" x2="556.6" y2="430.6"/>
  <line class="st33" x1="556.6" y1="430.6" x2="556.6" y2="430.6"/>
  <line class="st33" x1="556.6" y1="430.6" x2="556.6" y2="430.6"/>
  <line class="st33" x1="556.6" y1="430.6" x2="556.6" y2="430.6"/>
  <line class="st33" x1="556.6" y1="430.6" x2="556.6" y2="430.6"/>
  <line class="st33" x1="556.6" y1="430.6" x2="556.6" y2="430.6"/>
  <line class="st33" x1="556.6" y1="430.6" x2="556.6" y2="430.6"/>
  <line class="st33" x1="556.6" y1="430.6" x2="556.6" y2="430.6"/>
  <line class="st33" x1="556.6" y1="430.6" x2="556.6" y2="430.6"/>
  <line class="st33" x1="556.6" y1="430.6" x2="556.6" y2="430.6"/>
  <line class="st33" x1="556.6" y1="430.6" x2="556.6" y2="430.6"/>
  <line class="st33" x1="556.6" y1="430.6" x2="556.6" y2="430.6"/>
  <line class="st33" x1="556.6" y1="430.6" x2="556.6" y2="430.6"/>
  <line class="st33" x1="556.6" y1="430.6" x2="556.6" y2="430.6"/>
  <line class="st33" x1="556.6" y1="430.6" x2="556.6" y2="430.6"/>
  <line class="st33" x1="556.6" y1="430.6" x2="556.6" y2="430.6"/>
  <line class="st33" x1="556.6" y1="430.6" x2="556.6" y2="430.6"/>
  <line class="st33" x1="556.6" y1="430.6" x2="556.6" y2="430.6"/>
  <line class="st33" x1="556.6" y1="430.6" x2="556.6" y2="430.6"/>
  <line class="st33" x1="556.6" y1="430.6" x2="556.6" y2="430.6"/>
  <line class="st33" x1="556.6" y1="430.6" x2="556.6" y2="430.6"/>
  <line class="st33" x1="556.6" y1="430.6" x2="556.6" y2="430.6"/>
  <line class="st33" x1="556.6" y1="430.6" x2="556.6" y2="430.6"/>
  <line class="st33" x1="556.6" y1="430.6" x2="556.6" y2="430.6"/>
  <line class="st33" x1="556.6" y1="430.6" x2="556.6" y2="430.6"/>
  <line class="st33" x1="556.6" y1="430.6" x2="556.6" y2="430.6"/>
  <line class="st33" x1="556.6" y1="430.6" x2="556.6" y2="430.6"/>
  <line class="st33" x1="556.6" y1="430.6" x2="556.6" y2="430.6"/>
  <line class="st33" x1="556.6" y1="430.6" x2="556.6" y2="430.6"/>
  <line class="st33" x1="556.6" y1="430.6" x2="556.6" y2="430.6"/>
  <line class="st33" x1="556.6" y1="430.6" x2="556.6" y2="430.6"/>
  <line class="st33" x1="556.6" y1="430.6" x2="556.6" y2="430.6"/>
  <line class="st33" x1="556.6" y1="430.6" x2="556.6" y2="430.6"/>
  <line class="st33" x1="556.6" y1="430.6" x2="556.6" y2="430.6"/>
  <line class="st33" x1="556.6" y1="430.6" x2="556.6" y2="430.6"/>
  <line class="st33" x1="556.6" y1="430.6" x2="556.6" y2="430.6"/>
  <line class="st33" x1="556.6" y1="430.6" x2="556.6" y2="430.6"/>
  <line class="st33" x1="556.6" y1="430.6" x2="556.6" y2="430.6"/>
  <line class="st33" x1="556.6" y1="430.6" x2="556.6" y2="430.6"/>
  <line class="st33" x1="556.6" y1="430.6" x2="556.6" y2="430.6"/>
  <line class="st33" x1="556.6" y1="430.6" x2="556.6" y2="430.6"/>
  <line class="st33" x1="556.6" y1="430.6" x2="556.6" y2="430.6"/>
  <line class="st33" x1="556.6" y1="430.6" x2="556.6" y2="430.6"/>
  <line class="st33" x1="556.6" y1="430.6" x2="556.6" y2="430.6"/>
  <line class="st33" x1="556.6" y1="430.6" x2="556.6" y2="430.6"/>
  <line class="st33" x1="556.6" y1="430.6" x2="556.6" y2="430.6"/>
  <line class="st33" x1="556.6" y1="430.6" x2="556.6" y2="430.6"/>
  <line class="st33" x1="556.6" y1="430.6" x2="556.6" y2="430.6"/>
  <line class="st33" x1="556.6" y1="430.6" x2="556.6" y2="430.6"/>
  <line class="st33" x1="556.6" y1="430.6" x2="556.6" y2="430.6"/>
  <line class="st33" x1="556.6" y1="430.6" x2="556.6" y2="430.6"/>
  <line class="st33" x1="556.6" y1="430.6" x2="556.6" y2="430.6"/>
  <line class="st33" x1="556.6" y1="430.6" x2="556.6" y2="430.6"/>
  <line class="st33" x1="556.6" y1="430.6" x2="556.6" y2="430.6"/>
  <line class="st33" x1="556.6" y1="430.6" x2="556.6" y2="430.6"/>
  <line class="st33" x1="556.6" y1="430.6" x2="556.6" y2="430.6"/>
  <line class="st33" x1="556.6" y1="430.6" x2="556.6" y2="430.6"/>
  <line class="st33" x1="556.6" y1="430.6" x2="556.6" y2="430.6"/>
  <line class="st33" x1="556.6" y1="430.6" x2="556.6" y2="430.6"/>
  <line class="st33" x1="556.6" y1="430.6" x2="556.6" y2="430.6"/>
  <line class="st33" x1="556.6" y1="430.6" x2="556.6" y2="430.6"/>
  <line class="st33" x1="556.6" y1="430.6" x2="556.6" y2="430.6"/>
  <line class="st33" x1="556.6" y1="430.6" x2="556.6" y2="430.6"/>
  <line class="st33" x1="556.6" y1="430.6" x2="556.6" y2="430.6"/>
  <line class="st33" x1="556.6" y1="430.6" x2="556.6" y2="430.6"/>
  <line class="st33" x1="556.6" y1="430.6" x2="556.6" y2="430.6"/>
  <line class="st33" x1="556.6" y1="430.6" x2="556.6" y2="430.6"/>
  <line class="st33" x1="556.6" y1="430.6" x2="556.6" y2="430.6"/>
  <line class="st33" x1="556.6" y1="430.6" x2="556.6" y2="430.6"/>
  <line class="st33" x1="556.6" y1="430.6" x2="556.6" y2="430.6"/>
  <line class="st33" x1="556.6" y1="430.6" x2="556.6" y2="430.6"/>
  <line class="st33" x1="556.6" y1="430.6" x2="556.6" y2="430.6"/>
  <line class="st33" x1="556.6" y1="430.6" x2="556.6" y2="430.6"/>
  <line class="st33" x1="556.6" y1="430.6" x2="556.6" y2="430.6"/>
  <line class="st33" x1="556.6" y1="430.6" x2="556.6" y2="430.6"/>
  <line class="st33" x1="556.6" y1="430.6" x2="556.6" y2="430.6"/>
  <text class="st15" transform="translate(331.5 235.7)"><tspan x="0" y="0">Services</tspan></text>
  <text class="st15" transform="translate(328.2 248)"><tspan x="0" y="0">(100.00%)</tspan></text>
  <polygon class="st28" points="621.7 128.4 616.3 127.3 611 126.2 605.6 125.3 600.2 124.5 594.7 123.8 589.3 123.2 583.9 122.6 578.4 122.2 573 121.9 567.5 121.6 562 121.5 556.6 121.4 556.6 173 556.6 353.3 557.9 353.3 559.3 353.4 560.7 353.4 562 353.5 563.4 353.6 564.8 353.8 566.1 353.9 567.5 354.1 568.8 354.3 570.2 354.5 571.5 354.8 572.8 355.1 574.2 355.4 615.3 179.7 627 129.6 621.7 128.4"/>
  <polygon class="st24" points="733.7 177.2 729.1 174.1 724.5 171 719.7 168 714.9 165.1 710.1 162.2 705.2 159.5 700.3 156.9 695.3 154.3 690.3 151.8 685.2 149.5 680.1 147.2 674.9 145 669.7 142.9 664.5 140.9 659.3 139 654 137.2 648.6 135.5 643.3 133.8 637.9 132.3 632.5 130.9 627 129.6 615.3 179.7 574.2 355.4 575.5 355.7 576.9 356 578.2 356.4 579.6 356.8 580.9 357.3 582.2 357.7 583.6 358.2 584.9 358.7 586.2 359.2 587.4 359.8 588.7 360.3 590 360.9 591.2 361.5 592.5 362.2 593.7 362.8 595 363.5 596.2 364.2 597.4 365 598.5 365.7 599.7 366.5 600.9 367.3 602 368.1 708 222.2 738.3 180.5 733.7 177.2"/>
  <polygon class="st29" points="818.2 265.8 815.2 261.1 812 256.5 808.8 251.9 805.6 247.3 802.2 242.8 798.8 238.4 795.2 234.1 791.6 229.8 788 225.6 784.2 221.4 780.4 217.3 776.5 213.3 772.5 209.3 768.5 205.5 764.4 201.7 760.2 197.9 755.9 194.3 751.6 190.7 747.2 187.2 742.8 183.8 738.3 180.5 708 222.2 602 368.1 603.1 368.9 604.2 369.8 605.3 370.6 606.4 371.5 607.5 372.5 608.5 373.4 609.5 374.3 610.6 375.3 611.5 376.3 612.5 377.3 613.5 378.3 614.4 379.4 615.3 380.4 616.2 381.5 617.1 382.6 618 383.7 618.8 384.8 619.6 385.9 620.4 387.1 621.2 388.2 622 389.4 622.7 390.6 777 297.3 821.1 270.6 818.2 265.8"/>
  <polygon class="st30" points="777 297.3 779.3 301.1 781.6 305.1 783.7 309 785.8 313.1 787.9 317.1 789.8 321.2 791.7 325.3 793.5 329.4 795.3 333.6 796.9 337.8 798.5 342 800 346.3 801.5 350.6 802.9 354.9 804.1 359.2 805.4 363.6 806.5 368 807.6 372.4 808.5 376.8 809.4 381.2 810.3 385.6 811 390.1 811.7 394.6 812.3 399.1 812.8 403.6 813.2 408.1 813.6 412.6 813.9 417.1 814.1 421.6 814.2 426.1 814.2 430.6 814.2 435.2 814.1 439.7 813.9 444.2 813.6 448.7 813.2 453.2 812.8 457.7 812.3 462.2 811.7 466.7 811 471.2 810.3 475.6 809.4 480.1 808.5 484.5 807.5 488.9 806.5 493.3 805.3 497.7 804.1 502.1 802.8 506.4 801.5 510.7 800 515 798.5 519.2 796.9 523.5 795.3 527.7 793.5 531.9 791.7 536 789.8 540.1 787.9 544.2 785.8 548.2 783.7 552.2 781.6 556.2 779.3 560.1 777 564 774.6 567.9 772.2 571.7 769.7 575.4 767.1 579.2 764.5 582.8 761.8 586.5 759 590 756.2 593.6 753.3 597 750.3 600.5 747.3 603.8 744.3 607.2 741.1 610.4 737.9 613.6 734.7 616.8 731.4 619.9 728.1 622.9 724.7 625.9 721.2 628.8 717.7 631.7 714.1 634.5 710.5 637.2 706.9 639.9 703.2 642.5 699.5 645 695.7 647.5 691.8 649.9 688 652.3 684.1 654.5 680.1 656.7 676.1 658.9 672.1 660.9 668 662.9 664 664.8 659.8 666.7 655.7 668.5 651.5 670.2 647.3 671.8 643 673.4 638.7 674.8 634.4 676.2 630.1 677.6 625.8 678.8 621.4 680 617 681.1 612.6 682.1 608.2 683.1 603.7 683.9 599.3 684.7 594.8 685.4 590.4 686.1 585.9 686.6 581.4 687.1 576.9 687.5 572.3 687.8 561.3 507.8 562.7 507.7 564 507.6 565.4 507.4 566.7 507.3 568 507.1 569.4 506.9 570.7 506.6 572.1 506.4 573.4 506.1 574.7 505.8 576 505.4 577.3 505.1 578.6 504.7 579.9 504.3 581.2 503.9 582.5 503.5 583.8 503 585 502.5 586.3 502 587.5 501.5 588.8 500.9 590 500.3 591.2 499.7 592.4 499.1 593.6 498.5 594.8 497.8 596 497.1 597.1 496.4 598.3 495.7 599.4 495 600.6 494.2 601.7 493.4 602.8 492.6 603.8 491.8 604.9 491 606 490.1 607 489.2 608 488.3 609 487.4 610 486.5 611 485.5 611.9 484.6 612.9 483.6 613.8 482.6 614.7 481.6 615.6 480.5 616.4 479.5 617.3 478.5 618.1 477.4 618.9 476.3 619.7 475.2 620.5 474.1 621.3 472.9 622 471.8 622.7 470.6 623.4 469.5 624.1 468.3 624.7 467.1 625.3 465.9 626 464.7 626.5 463.5 627.1 462.2 627.6 461 628.2 459.8 628.7 458.5 629.1 457.2 629.6 455.9 630 454.6 630.4 453.4 630.8 452.1 631.2 450.8 631.5 449.4 631.9 448.1 632.2 446.8 632.4 445.5 632.7 444.1 632.9 442.8 633.1 441.5 633.3 440.1 633.4 438.8 633.6 437.4 633.7 436.1 633.8 434.7 633.8 433.4 633.9 432 633.9 430.6 633.9 429.3 633.8 427.9 633.8 426.6 633.7 425.2 633.6 423.9 633.4 422.5 633.3 421.2 633.1 419.8 632.9 418.5 632.7 417.1 632.4 415.8 632.2 414.5 631.9 413.1 631.5 411.8 631.2 410.5 630.8 409.2 630.5 407.9 630 406.6 629.6 405.3 629.2 404 628.7 402.8 628.2 401.5 627.7 400.3 627.1 399 626.5 397.8 626 396.6 625.3 395.4 624.7 394.2 624.1 393 623.4 391.8 622.7 390.6 777 297.3"/>
  <polygon class="st32" points="572.3 687.8 567.8 688 563.3 688.2 558.8 688.3 554.3 688.3 549.8 688.2 545.3 688 540.8 687.8 536.3 687.5 531.8 687.1 527.3 686.6 522.9 686.1 518.4 685.5 514 684.8 509.5 684 505.1 683.1 500.7 682.2 496.3 681.2 491.9 680.1 487.6 678.9 483.2 677.6 478.9 676.3 474.6 674.9 470.4 673.5 466.1 671.9 461.9 670.3 457.8 668.6 453.6 666.8 449.5 665 445.4 663.1 441.4 661.1 437.4 659.1 433.4 656.9 429.4 654.8 425.5 652.5 421.7 650.2 417.9 647.8 414.1 645.3 410.3 642.8 406.7 640.2 403 637.5 399.4 634.8 395.9 632 392.4 629.2 388.9 626.3 385.5 623.3 382.2 620.3 378.9 617.2 375.6 614.1 372.5 610.9 369.3 607.7 366.3 604.4 363.3 601 360.3 597.6 357.4 594.1 354.6 590.6 351.8 587.1 349.1 583.5 346.5 579.8 343.9 576.1 341.4 572.4 338.9 568.6 336.6 564.8 334.2 560.9 332 557 329.8 553 327.7 549 325.7 545 323.7 541 321.8 536.9 320 532.8 318.3 528.6 316.6 524.4 315 520.2 313.4 516 312 511.7 310.6 507.4 309.3 503.1 308.1 498.8 306.9 494.4 305.8 490 304.8 485.6 303.9 481.2 303.1 476.8 302.3 472.4 301.6 467.9 301 463.4 300.5 459 300 454.5 299.6 450 299.3 445.5 299.1 441 299 436.5 298.9 432 298.9 427.5 299 423 299.2 418.5 299.4 414 299.8 409.5 300.2 405 300.7 400.5 301.2 396 301.9 391.6 302.6 387.1 303.4 382.7 304.3 378.2 305.2 373.8 481.2 413.6 480.9 414.9 480.6 416.2 480.4 417.6 480.2 418.9 480 420.2 479.8 421.6 479.6 422.9 479.5 424.3 479.4 425.6 479.4 427 479.3 428.3 479.3 429.7 479.3 431 479.3 432.4 479.3 433.7 479.4 435.1 479.5 436.4 479.6 437.8 479.7 439.1 479.9 440.5 480.1 441.8 480.3 443.1 480.5 444.5 480.8 445.8 481 447.1 481.3 448.5 481.7 449.8 482 451.1 482.4 452.4 482.8 453.7 483.2 455 483.6 456.2 484.1 457.5 484.6 458.8 485.1 460 485.6 461.3 486.1 462.5 486.7 463.7 487.3 465 487.9 466.2 488.5 467.4 489.2 468.5 489.9 469.7 490.6 470.9 491.3 472 492 473.1 492.8 474.3 493.5 475.4 494.3 476.5 495.1 477.6 496 478.6 496.8 479.7 497.7 480.7 498.6 481.7 499.5 482.8 500.4 483.7 501.3 484.7 502.3 485.7 503.3 486.6 504.2 487.5 505.3 488.4 506.3 489.3 507.3 490.2 508.4 491 509.4 491.9 510.5 492.7 511.6 493.5 512.7 494.3 513.8 495 515 495.8 516.1 496.5 517.3 497.2 518.4 497.9 519.6 498.5 520.8 499.2 522 499.8 523.2 500.4 524.4 500.9 525.7 501.5 526.9 502 528.2 502.5 529.4 503 530.7 503.5 532 503.9 533.3 504.3 534.6 504.7 535.9 505.1 537.2 505.5 538.5 505.8 539.8 506.1 541.1 506.4 542.5 506.6 543.8 506.9 545.1 507.1 546.5 507.3 547.8 507.4 549.1 507.6 550.5 507.7 551.8 507.8 553.2 507.9 554.5 507.9 555.9 507.9 557.2 507.9 558.6 507.9 559.9 507.9 561.3 507.8 572.3 687.8"/>
  <polygon class="st23" points="478.8 185 463.3 135.8 458.1 137.5 452.9 139.3 447.8 141.2 442.7 143.2 437.6 145.2 432.6 147.4 427.6 149.6 422.7 151.9 417.8 154.3 412.9 156.8 408.1 159.4 403.3 162.1 398.6 164.8 394 167.6 389.3 170.5 384.8 173.5 380.3 176.6 375.8 179.8 371.4 183 367.1 186.3 362.8 189.7 358.5 193.2 354.4 196.7 350.3 200.3 346.2 204 342.3 207.7 338.4 211.5 334.5 215.4 330.8 219.4 327.1 223.4 323.4 227.5 319.9 231.6 316.4 235.9 313 240.1 309.7 244.5 306.4 248.8 303.3 253.3 300.2 257.8 297.2 262.4 294.2 267 291.4 271.6 288.6 276.3 285.9 281.1 283.3 285.9 280.8 290.7 278.4 295.6 276.1 300.6 273.8 305.5 271.6 310.5 269.6 315.6 267.6 320.7 265.7 325.8 263.9 331 262.2 336.1 260.5 341.4 259 346.6 257.6 351.9 256.2 357.2 255 362.5 305.2 373.8 481.2 413.6 481.5 412.3 481.8 410.9 482.2 409.6 482.6 408.3 483 407 483.4 405.7 483.8 404.4 484.3 403.1 484.8 401.9 485.3 400.6 485.9 399.4 486.4 398.1 487 396.9 487.6 395.7 488.3 394.5 488.9 393.2 489.6 392.1 490.3 390.9 491 389.7 491.7 388.6 492.5 387.4 493.2 386.3 494 385.2 494.8 384.1 495.7 383 496.5 381.9 497.4 380.9 498.3 379.8 499.2 378.8 500.1 377.8 501.1 376.8 502 375.9 503 374.9 504 374 505 373 506 372.1 507.1 371.3 508.1 370.4 509.2 369.5 510.3 368.7 511.4 367.9 512.5 367.1 513.6 366.4 514.8 365.6 515.9 364.9 517.1 364.2 518.3 363.5 519.5 362.8 520.7 362.2 521.9 361.5 523.1 361 524.3 360.4 525.6 359.8 526.8 359.3 528.1 358.8 529.4 358.3 530.7 357.8 531.9 357.4 533.2 356.9 478.8 185"/>
  <polygon class="st25" points="551 121.5 545.4 121.6 539.8 121.9 534.3 122.2 528.7 122.7 523.2 123.2 517.6 123.9 512.1 124.6 506.6 125.5 501.1 126.4 495.6 127.5 490.2 128.6 484.8 129.9 479.3 131.2 474 132.7 468.6 134.2 463.3 135.8 478.8 185 533.2 356.9 534.6 356.5 535.9 356.1 537.3 355.8 538.6 355.4 540 355.1 541.3 354.8 542.7 354.6 544.1 354.3 545.5 354.1 546.8 353.9 548.2 353.8 549.6 353.6 551 353.5 552.4 353.4 553.8 353.4 555.2 353.3 556.6 353.3 556.6 173 556.6 121.4 551 121.5"/>
  <path class="st33" d="M663.8,196.3"/>
  <text class="st17" transform="translate(566.8 265.6)"><tspan x="0" y="0">15</tspan></text>
  <text class="st17" transform="translate(621.1 274.7)"><tspan x="0" y="0">26</tspan></text>
  <text class="st17" transform="translate(687.8 307.9)"><tspan x="0" y="0">26</tspan></text>
  <text class="st17" transform="translate(694.7 557)"><tspan x="0" y="0">134</tspan></text>
  <text class="st17" transform="translate(821.1 502.6)"><tspan x="0" y="0">96</tspan></text>
  <text class="st17" transform="translate(680.6 687.8)"><tspan x="0" y="0">21</tspan></text>
  <text class="st17" transform="translate(598.8 715.4)"><tspan x="0" y="0">17</tspan></text>
  <text class="st17" transform="translate(307.5 596.3)"><tspan x="0" y="0">24</tspan></text>
  <text class="st17" transform="translate(442.5 702.3)"><tspan x="0" y="0">56</tspan></text>
  <text class="st17" transform="translate(274.6 518)"><tspan x="0" y="0">15</tspan></text>
  <text class="st17" transform="translate(269.6 470.9)"><tspan x="0" y="0">8</tspan></text>
  <text class="st17" transform="translate(267.5 442.8)"><tspan x="0" y="0">4</tspan></text>
  <text class="st17" transform="translate(267.8 425.1)"><tspan x="0" y="0">4</tspan></text>
  <text class="st17" transform="translate(268.2 408.8)"><tspan x="0" y="0">4</tspan></text>
  <text class="st17" transform="translate(412.8 552.3)"><tspan x="0" y="0">121</tspan></text>
  <text class="st17" transform="translate(435 324.7)"><tspan x="0" y="0">68</tspan></text>
  <text class="st17" transform="translate(519 270.1)"><tspan x="0" y="0">20</tspan></text>
  <text class="st17" transform="translate(648.5 504.9)"><tspan x="0" y="0">Restaurants </tspan></text>
  <text class="st17" transform="translate(637.2 527)"><tspan x="0" y="0">and bars 32.7%</tspan></text>
  <text class="st17" transform="translate(893.3 344.2)"><tspan x="0" y="0">Medical 6.3%</tspan></text>
  <text class="st17" transform="translate(374.3 522.5)"><tspan x="0" y="0">Retail 29.5%</tspan></text>
  <polygon class="st11" points="250.6 380.6 251.4 375.9 252.3 371.3 302.9 381.1 302.2 384.9 301.5 388.8 250.6 380.6"/>
  <polygon class="st0" points="252.3 371.3 252.8 368.9 253.2 366.6 303.7 377.2 303.3 379.1 302.9 381.1 252.3 371.3"/>
  <polygon class="st12" points="253.2 366.6 253.7 364.3 254.3 362 304.5 373.3 304.1 375.3 303.7 377.2 253.2 366.6"/>
  <line class="st33" x1="555.9" y1="430.1" x2="555.9" y2="430.1"/>
  <line class="st33" x1="555.9" y1="430.1" x2="555.9" y2="430.1"/>
  <line class="st33" x1="555.9" y1="430.1" x2="555.9" y2="430.1"/>
  <line class="st33" x1="555.9" y1="430.1" x2="555.9" y2="430.1"/>
  <line class="st33" x1="555.9" y1="430.1" x2="555.9" y2="430.1"/>
  <line class="st33" x1="555.9" y1="430.1" x2="555.9" y2="430.1"/>
  <line class="st33" x1="555.9" y1="430.1" x2="555.9" y2="430.1"/>
  <line class="st33" x1="555.9" y1="430.1" x2="555.9" y2="430.1"/>
  <line class="st33" x1="555.9" y1="430.1" x2="555.9" y2="430.1"/>
  <line class="st33" x1="555.9" y1="430.1" x2="555.9" y2="430.1"/>
  <line class="st33" x1="555.9" y1="430.1" x2="555.9" y2="430.1"/>
  <line class="st33" x1="555.9" y1="430.1" x2="555.9" y2="430.1"/>
  <line class="st33" x1="555.9" y1="430.1" x2="555.9" y2="430.1"/>
  <line class="st33" x1="555.9" y1="430.1" x2="555.9" y2="430.1"/>
  <line class="st33" x1="555.9" y1="430.1" x2="555.9" y2="430.1"/>
  <line class="st33" x1="555.9" y1="430.1" x2="555.9" y2="430.1"/>
  <line class="st33" x1="555.9" y1="430.1" x2="555.9" y2="430.1"/>
  <line class="st33" x1="555.9" y1="430.1" x2="555.9" y2="430.1"/>
  <line class="st33" x1="555.9" y1="430.1" x2="555.9" y2="430.1"/>
  <line class="st33" x1="555.9" y1="430.1" x2="555.9" y2="430.1"/>
  <line class="st33" x1="555.9" y1="430.1" x2="555.9" y2="430.1"/>
  <line class="st33" x1="555.9" y1="430.1" x2="555.9" y2="430.1"/>
  <line class="st33" x1="555.9" y1="430.1" x2="555.9" y2="430.1"/>
  <line class="st33" x1="555.9" y1="430.1" x2="555.9" y2="430.1"/>
  <line class="st33" x1="555.9" y1="430.1" x2="555.9" y2="430.1"/>
  <line class="st33" x1="555.9" y1="430.1" x2="555.9" y2="430.1"/>
  <line class="st33" x1="555.9" y1="430.1" x2="555.9" y2="430.1"/>
  <line class="st33" x1="555.9" y1="430.1" x2="555.9" y2="430.1"/>
  <line class="st33" x1="555.9" y1="430.1" x2="555.9" y2="430.1"/>
  <line class="st33" x1="555.9" y1="430.1" x2="555.9" y2="430.1"/>
  <line class="st33" x1="555.9" y1="430.1" x2="555.9" y2="430.1"/>
  <line class="st33" x1="555.9" y1="430.1" x2="555.9" y2="430.1"/>
  <line class="st33" x1="555.9" y1="430.1" x2="555.9" y2="430.1"/>
  <line class="st33" x1="555.9" y1="430.1" x2="555.9" y2="430.1"/>
  <line class="st33" x1="555.9" y1="430.1" x2="555.9" y2="430.1"/>
  <line class="st33" x1="555.9" y1="430.1" x2="555.9" y2="430.1"/>
  <line class="st33" x1="555.9" y1="430.1" x2="555.9" y2="430.1"/>
  <line class="st33" x1="555.9" y1="430.1" x2="555.9" y2="430.1"/>
  <line class="st33" x1="555.9" y1="430.1" x2="555.9" y2="430.1"/>
  <line class="st33" x1="555.9" y1="430.1" x2="555.9" y2="430.1"/>
  <line class="st33" x1="555.9" y1="430.1" x2="555.9" y2="430.1"/>
  <line class="st33" x1="555.9" y1="430.1" x2="555.9" y2="430.1"/>
  <line class="st33" x1="555.9" y1="430.1" x2="555.9" y2="430.1"/>
  <line class="st33" x1="555.9" y1="430.1" x2="555.9" y2="430.1"/>
  <line class="st33" x1="555.9" y1="430.1" x2="555.9" y2="430.1"/>
  <line class="st33" x1="555.9" y1="430.1" x2="555.9" y2="430.1"/>
  <line class="st33" x1="555.9" y1="430.1" x2="555.9" y2="430.1"/>
  <line class="st33" x1="555.9" y1="430.1" x2="555.9" y2="430.1"/>
  <line class="st33" x1="555.9" y1="430.1" x2="555.9" y2="430.1"/>
  <line class="st33" x1="555.9" y1="430.1" x2="555.9" y2="430.1"/>
  <line class="st33" x1="555.9" y1="430.1" x2="555.9" y2="430.1"/>
  <line class="st33" x1="555.9" y1="430.1" x2="555.9" y2="430.1"/>
  <line class="st33" x1="555.9" y1="430.1" x2="555.9" y2="430.1"/>
  <line class="st33" x1="555.9" y1="430.1" x2="555.9" y2="430.1"/>
  <line class="st33" x1="555.9" y1="430.1" x2="555.9" y2="430.1"/>
  <line class="st33" x1="555.9" y1="430.1" x2="555.9" y2="430.1"/>
  <line class="st33" x1="555.9" y1="430.1" x2="555.9" y2="430.1"/>
  <line class="st33" x1="555.9" y1="430.1" x2="555.9" y2="430.1"/>
  <line class="st33" x1="555.9" y1="430.1" x2="555.9" y2="430.1"/>
  <line class="st33" x1="555.9" y1="430.1" x2="555.9" y2="430.1"/>
  <line class="st33" x1="555.9" y1="430.1" x2="555.9" y2="430.1"/>
  <line class="st33" x1="555.9" y1="430.1" x2="555.9" y2="430.1"/>
  <line class="st33" x1="555.9" y1="430.1" x2="555.9" y2="430.1"/>
  <line class="st33" x1="555.9" y1="430.1" x2="555.9" y2="430.1"/>
  <line class="st33" x1="555.9" y1="430.1" x2="555.9" y2="430.1"/>
  <line class="st33" x1="555.9" y1="430.1" x2="555.9" y2="430.1"/>
  <line class="st33" x1="555.9" y1="430.1" x2="555.9" y2="430.1"/>
  <line class="st33" x1="555.9" y1="430.1" x2="555.9" y2="430.1"/>
  <line class="st33" x1="555.9" y1="430.1" x2="555.9" y2="430.1"/>
  <line class="st33" x1="555.9" y1="430.1" x2="555.9" y2="430.1"/>
  <line class="st33" x1="555.9" y1="430.1" x2="555.9" y2="430.1"/>
  <line class="st33" x1="555.9" y1="430.1" x2="555.9" y2="430.1"/>
  <line class="st33" x1="555.9" y1="430.1" x2="555.9" y2="430.1"/>
  <line class="st33" x1="555.9" y1="430.1" x2="555.9" y2="430.1"/>
  <line class="st33" x1="555.9" y1="430.1" x2="555.9" y2="430.1"/>
  <line class="st33" x1="555.9" y1="430.1" x2="555.9" y2="430.1"/>
  <line class="st33" x1="555.9" y1="430.1" x2="555.9" y2="430.1"/>
  <line class="st33" x1="555.9" y1="430.1" x2="555.9" y2="430.1"/>
  <line class="st33" x1="555.9" y1="430.1" x2="555.9" y2="430.1"/>
  <line class="st33" x1="555.9" y1="430.1" x2="555.9" y2="430.1"/>
  <line class="st33" x1="555.9" y1="430.1" x2="555.9" y2="430.1"/>
  <line class="st33" x1="555.9" y1="430.1" x2="555.9" y2="430.1"/>
  <line class="st33" x1="555.9" y1="430.1" x2="555.9" y2="430.1"/>
  <line class="st33" x1="555.9" y1="430.1" x2="555.9" y2="430.1"/>
  <line class="st33" x1="555.9" y1="430.1" x2="555.9" y2="430.1"/>
  <line class="st33" x1="555.9" y1="430.1" x2="555.9" y2="430.1"/>
  <line class="st33" x1="555.9" y1="430.1" x2="555.9" y2="430.1"/>
  <line class="st33" x1="555.9" y1="430.1" x2="555.9" y2="430.1"/>
  <line class="st33" x1="555.9" y1="430.1" x2="555.9" y2="430.1"/>
  <line class="st33" x1="555.9" y1="430.1" x2="555.9" y2="430.1"/>
  <line class="st33" x1="555.9" y1="430.1" x2="555.9" y2="430.1"/>
  <line class="st33" x1="555.9" y1="430.1" x2="555.9" y2="430.1"/>
  <line class="st33" x1="555.9" y1="430.1" x2="555.9" y2="430.1"/>
  <line class="st33" x1="555.9" y1="430.1" x2="555.9" y2="430.1"/>
  <line class="st33" x1="555.9" y1="430.1" x2="555.9" y2="430.1"/>
  <line class="st33" x1="555.9" y1="430.1" x2="555.9" y2="430.1"/>
  <line class="st33" x1="555.9" y1="430.1" x2="555.9" y2="430.1"/>
  <line class="st33" x1="555.9" y1="430.1" x2="555.9" y2="430.1"/>
  <line class="st33" x1="555.9" y1="430.1" x2="555.9" y2="430.1"/>
  <line class="st33" x1="555.9" y1="430.1" x2="555.9" y2="430.1"/>
  <line class="st33" x1="555.9" y1="430.1" x2="555.9" y2="430.1"/>
  <line class="st33" x1="555.9" y1="430.1" x2="555.9" y2="430.1"/>
  <line class="st33" x1="555.9" y1="430.1" x2="555.9" y2="430.1"/>
  <line class="st33" x1="555.9" y1="430.1" x2="555.9" y2="430.1"/>
  <line class="st33" x1="555.9" y1="430.1" x2="555.9" y2="430.1"/>
  <line class="st33" x1="555.9" y1="430.1" x2="555.9" y2="430.1"/>
  <line class="st33" x1="555.9" y1="430.1" x2="555.9" y2="430.1"/>
  <line class="st33" x1="555.9" y1="430.1" x2="555.9" y2="430.1"/>
  <line class="st33" x1="555.9" y1="430.1" x2="555.9" y2="430.1"/>
  <line class="st33" x1="555.9" y1="430.1" x2="555.9" y2="430.1"/>
  <line class="st33" x1="555.9" y1="430.1" x2="555.9" y2="430.1"/>
  <line class="st33" x1="555.9" y1="430.1" x2="555.9" y2="430.1"/>
  <line class="st33" x1="555.9" y1="430.1" x2="555.9" y2="430.1"/>
  <line class="st33" x1="555.9" y1="430.1" x2="555.9" y2="430.1"/>
  <text class="st6" transform="translate(886.9 500.7)"><tspan x="0" y="0">Eat-in 71.6%</tspan></text>
  <text class="st6" transform="translate(716 723.5)"><tspan x="0" y="0">Take-out 15.7%</tspan></text>
  <text class="st6" transform="translate(617.3 760.4)"><tspan x="0" y="0">Bar 12.7%</tspan></text>
  <text class="st19" transform="translate(255 747.1)"><tspan x="0" y="0">Specialty Store 46.3%</tspan></text>
  <text class="st19" transform="translate(78.4 617.6)"><tspan x="0" y="0">Vintage Clothing 19.8%</tspan></text>
  <text class="st19" transform="translate(53.7 523.6)"><tspan x="0" y="0">Discount Store 12.4%</tspan></text>
  <text class="st16" transform="translate(104.7 322.5)"><tspan x="0" y="0">Hardware 0.8% (1)</tspan></text>
  <text class="st16" transform="translate(91.5 340.9)"><tspan x="0" y="0">Mushrooms 0.8% (1)</tspan></text>
  <text class="st16" transform="translate(133.4 359.5)"><tspan x="0" y="0">Other 1.6% (2)</tspan></text>
  <text class="st16" transform="translate(92.8 377.2)"><tspan x="0" y="0">Flea-Market 1.6% (2)</tspan></text>
  <text class="st19" transform="translate(65.3 400.8)"><tspan x="0" y="0">New Clothing 3.3%</tspan></text>
  <text class="st19" transform="translate(17.8 422.1)"><tspan x="0" y="0">Convenience Store 3.3%</tspan></text>
  <text class="st19" transform="translate(139.4 443.9)"><tspan x="0" y="0">Vape 3.3%</tspan></text>
  <text class="st19" transform="translate(101.5 471)"><tspan x="0" y="0">Cannabis 6.6%</tspan></text>
  <text class="st1" transform="translate(251.8 46.8)"><tspan x="0" y="0">Kensington Market non-residential activity 2025</tspan></text>
  <text class="st7" transform="translate(215.5 832.3)"><tspan x="0" y="0">Source: KMCLT, Data Axle Canadian Historical Business Data 2025</tspan></text>
  <g id="Donut_mask">
    <path class="st31" d="M777.2,297.8c-45-75.2-127.3-125.6-221.4-125.6s-225.6,85.9-251.5,200.9l-50.1-11.4c31.1-137.9,154.3-240.9,301.6-240.9s210.9,60,265,149.8l-43.6,27.1h0Z"/>
    <line class="st27" x1="304.5" y1="373.3" x2="255" y2="362.5"/>
    <line class="st26" x1="777" y1="297.3" x2="821.1" y2="270.6"/>
  </g>
  <text class="st21" transform="translate(752.4 247)"><tspan x="0" y="0">Medical 6.3%</tspan></text>
  <text class="st4" transform="translate(681.4 190.3)"><tspan x="0" y="0">Foodstuffs 6.3%</tspan></text>
  <text class="st13" transform="translate(586.9 160)"><tspan x="0" y="0">Arts 3.7%</tspan></text>
  <text class="st9" transform="translate(426.7 159.8)"><tspan x="0" y="0">Social 4.9%</tspan></text>
  <text class="st10" transform="translate(231 248.6)"><tspan x="0" y="0">Services 16.6%</tspan></text>
</svg>